<?xml version="1.0" encoding="utf-8" standalone="no"?>
<!DOCTYPE svg PUBLIC "-//W3C//DTD SVG 1.1//EN"
  "http://www.w3.org/Graphics/SVG/1.1/DTD/svg11.dtd">
<!-- Created with matplotlib (https://matplotlib.org/) -->
<svg height="614.88pt" version="1.1" viewBox="0 0 1334.16 614.88" width="1334.16pt" xmlns="http://www.w3.org/2000/svg" xmlns:xlink="http://www.w3.org/1999/xlink">
 <metadata>
  <rdf:RDF xmlns:cc="http://creativecommons.org/ns#" xmlns:dc="http://purl.org/dc/elements/1.1/" xmlns:rdf="http://www.w3.org/1999/02/22-rdf-syntax-ns#">
   <cc:Work>
    <dc:type rdf:resource="http://purl.org/dc/dcmitype/StillImage"/>
    <dc:date>2023-05-03T09:58:50.635347</dc:date>
    <dc:format>image/svg+xml</dc:format>
    <dc:creator>
     <cc:Agent>
      <dc:title>Matplotlib v3.3.4, https://matplotlib.org/</dc:title>
     </cc:Agent>
    </dc:creator>
   </cc:Work>
  </rdf:RDF>
 </metadata>
 <defs>
  <style type="text/css">*{stroke-linecap:butt;stroke-linejoin:round;}</style>
 </defs>
 <g id="figure_1">
  <g id="patch_1">
   <path d="M 0 614.88 
L 1334.16 614.88 
L 1334.16 0 
L 0 0 
z
" style="fill:#ffffff;"/>
  </g>
  <g id="axes_1">
   <g id="patch_2">
    <path d="M 166.77 547.2432 
L 1200.744 547.2432 
L 1200.744 73.7856 
L 166.77 73.7856 
z
" style="fill:#ffffff;"/>
   </g>
   <g id="matplotlib.axis_1">
    <g id="xtick_1">
     <g id="line2d_1">
      <path clip-path="url(#pde1c17adf9)" d="M 362.33911 547.2432 
L 362.33911 73.7856 
" style="fill:none;stroke:#b0b0b0;stroke-linecap:square;stroke-width:0.8;"/>
     </g>
     <g id="line2d_2">
      <defs>
       <path d="M 0 0 
L 0 3.5 
" id="mc309f9c193" style="stroke:#000000;stroke-width:0.8;"/>
      </defs>
      <g>
       <use style="stroke:#000000;stroke-width:0.8;" x="362.33911" xlink:href="#mc309f9c193" y="547.2432"/>
      </g>
     </g>
     <g id="text_1">
      <!-- 0.2 -->
      <g transform="translate(354.387548 561.841637)scale(0.1 -0.1)">
       <defs>
        <path d="M 31.78125 66.40625 
Q 24.171875 66.40625 20.328125 58.90625 
Q 16.5 51.421875 16.5 36.375 
Q 16.5 21.390625 20.328125 13.890625 
Q 24.171875 6.390625 31.78125 6.390625 
Q 39.453125 6.390625 43.28125 13.890625 
Q 47.125 21.390625 47.125 36.375 
Q 47.125 51.421875 43.28125 58.90625 
Q 39.453125 66.40625 31.78125 66.40625 
z
M 31.78125 74.21875 
Q 44.046875 74.21875 50.515625 64.515625 
Q 56.984375 54.828125 56.984375 36.375 
Q 56.984375 17.96875 50.515625 8.265625 
Q 44.046875 -1.421875 31.78125 -1.421875 
Q 19.53125 -1.421875 13.0625 8.265625 
Q 6.59375 17.96875 6.59375 36.375 
Q 6.59375 54.828125 13.0625 64.515625 
Q 19.53125 74.21875 31.78125 74.21875 
z
" id="DejaVuSans-48"/>
        <path d="M 10.6875 12.40625 
L 21 12.40625 
L 21 0 
L 10.6875 0 
z
" id="DejaVuSans-46"/>
        <path d="M 19.1875 8.296875 
L 53.609375 8.296875 
L 53.609375 0 
L 7.328125 0 
L 7.328125 8.296875 
Q 12.9375 14.109375 22.625 23.890625 
Q 32.328125 33.6875 34.8125 36.53125 
Q 39.546875 41.84375 41.421875 45.53125 
Q 43.3125 49.21875 43.3125 52.78125 
Q 43.3125 58.59375 39.234375 62.25 
Q 35.15625 65.921875 28.609375 65.921875 
Q 23.96875 65.921875 18.8125 64.3125 
Q 13.671875 62.703125 7.8125 59.421875 
L 7.8125 69.390625 
Q 13.765625 71.78125 18.9375 73 
Q 24.125 74.21875 28.421875 74.21875 
Q 39.75 74.21875 46.484375 68.546875 
Q 53.21875 62.890625 53.21875 53.421875 
Q 53.21875 48.921875 51.53125 44.890625 
Q 49.859375 40.875 45.40625 35.40625 
Q 44.1875 33.984375 37.640625 27.21875 
Q 31.109375 20.453125 19.1875 8.296875 
z
" id="DejaVuSans-50"/>
       </defs>
       <use xlink:href="#DejaVuSans-48"/>
       <use x="63.623047" xlink:href="#DejaVuSans-46"/>
       <use x="95.410156" xlink:href="#DejaVuSans-50"/>
      </g>
     </g>
    </g>
    <g id="xtick_2">
     <g id="line2d_3">
      <path clip-path="url(#pde1c17adf9)" d="M 560.432975 547.2432 
L 560.432975 73.7856 
" style="fill:none;stroke:#b0b0b0;stroke-linecap:square;stroke-width:0.8;"/>
     </g>
     <g id="line2d_4">
      <g>
       <use style="stroke:#000000;stroke-width:0.8;" x="560.432975" xlink:href="#mc309f9c193" y="547.2432"/>
      </g>
     </g>
     <g id="text_2">
      <!-- 0.4 -->
      <g transform="translate(552.481413 561.841637)scale(0.1 -0.1)">
       <defs>
        <path d="M 37.796875 64.3125 
L 12.890625 25.390625 
L 37.796875 25.390625 
z
M 35.203125 72.90625 
L 47.609375 72.90625 
L 47.609375 25.390625 
L 58.015625 25.390625 
L 58.015625 17.1875 
L 47.609375 17.1875 
L 47.609375 0 
L 37.796875 0 
L 37.796875 17.1875 
L 4.890625 17.1875 
L 4.890625 26.703125 
z
" id="DejaVuSans-52"/>
       </defs>
       <use xlink:href="#DejaVuSans-48"/>
       <use x="63.623047" xlink:href="#DejaVuSans-46"/>
       <use x="95.410156" xlink:href="#DejaVuSans-52"/>
      </g>
     </g>
    </g>
    <g id="xtick_3">
     <g id="line2d_5">
      <path clip-path="url(#pde1c17adf9)" d="M 758.526841 547.2432 
L 758.526841 73.7856 
" style="fill:none;stroke:#b0b0b0;stroke-linecap:square;stroke-width:0.8;"/>
     </g>
     <g id="line2d_6">
      <g>
       <use style="stroke:#000000;stroke-width:0.8;" x="758.526841" xlink:href="#mc309f9c193" y="547.2432"/>
      </g>
     </g>
     <g id="text_3">
      <!-- 0.6 -->
      <g transform="translate(750.575278 561.841637)scale(0.1 -0.1)">
       <defs>
        <path d="M 33.015625 40.375 
Q 26.375 40.375 22.484375 35.828125 
Q 18.609375 31.296875 18.609375 23.390625 
Q 18.609375 15.53125 22.484375 10.953125 
Q 26.375 6.390625 33.015625 6.390625 
Q 39.65625 6.390625 43.53125 10.953125 
Q 47.40625 15.53125 47.40625 23.390625 
Q 47.40625 31.296875 43.53125 35.828125 
Q 39.65625 40.375 33.015625 40.375 
z
M 52.59375 71.296875 
L 52.59375 62.3125 
Q 48.875 64.0625 45.09375 64.984375 
Q 41.3125 65.921875 37.59375 65.921875 
Q 27.828125 65.921875 22.671875 59.328125 
Q 17.53125 52.734375 16.796875 39.40625 
Q 19.671875 43.65625 24.015625 45.921875 
Q 28.375 48.1875 33.59375 48.1875 
Q 44.578125 48.1875 50.953125 41.515625 
Q 57.328125 34.859375 57.328125 23.390625 
Q 57.328125 12.15625 50.6875 5.359375 
Q 44.046875 -1.421875 33.015625 -1.421875 
Q 20.359375 -1.421875 13.671875 8.265625 
Q 6.984375 17.96875 6.984375 36.375 
Q 6.984375 53.65625 15.1875 63.9375 
Q 23.390625 74.21875 37.203125 74.21875 
Q 40.921875 74.21875 44.703125 73.484375 
Q 48.484375 72.75 52.59375 71.296875 
z
" id="DejaVuSans-54"/>
       </defs>
       <use xlink:href="#DejaVuSans-48"/>
       <use x="63.623047" xlink:href="#DejaVuSans-46"/>
       <use x="95.410156" xlink:href="#DejaVuSans-54"/>
      </g>
     </g>
    </g>
    <g id="xtick_4">
     <g id="line2d_7">
      <path clip-path="url(#pde1c17adf9)" d="M 956.620706 547.2432 
L 956.620706 73.7856 
" style="fill:none;stroke:#b0b0b0;stroke-linecap:square;stroke-width:0.8;"/>
     </g>
     <g id="line2d_8">
      <g>
       <use style="stroke:#000000;stroke-width:0.8;" x="956.620706" xlink:href="#mc309f9c193" y="547.2432"/>
      </g>
     </g>
     <g id="text_4">
      <!-- 0.8 -->
      <g transform="translate(948.669143 561.841637)scale(0.1 -0.1)">
       <defs>
        <path d="M 31.78125 34.625 
Q 24.75 34.625 20.71875 30.859375 
Q 16.703125 27.09375 16.703125 20.515625 
Q 16.703125 13.921875 20.71875 10.15625 
Q 24.75 6.390625 31.78125 6.390625 
Q 38.8125 6.390625 42.859375 10.171875 
Q 46.921875 13.96875 46.921875 20.515625 
Q 46.921875 27.09375 42.890625 30.859375 
Q 38.875 34.625 31.78125 34.625 
z
M 21.921875 38.8125 
Q 15.578125 40.375 12.03125 44.71875 
Q 8.5 49.078125 8.5 55.328125 
Q 8.5 64.0625 14.71875 69.140625 
Q 20.953125 74.21875 31.78125 74.21875 
Q 42.671875 74.21875 48.875 69.140625 
Q 55.078125 64.0625 55.078125 55.328125 
Q 55.078125 49.078125 51.53125 44.71875 
Q 48 40.375 41.703125 38.8125 
Q 48.828125 37.15625 52.796875 32.3125 
Q 56.78125 27.484375 56.78125 20.515625 
Q 56.78125 9.90625 50.3125 4.234375 
Q 43.84375 -1.421875 31.78125 -1.421875 
Q 19.734375 -1.421875 13.25 4.234375 
Q 6.78125 9.90625 6.78125 20.515625 
Q 6.78125 27.484375 10.78125 32.3125 
Q 14.796875 37.15625 21.921875 38.8125 
z
M 18.3125 54.390625 
Q 18.3125 48.734375 21.84375 45.5625 
Q 25.390625 42.390625 31.78125 42.390625 
Q 38.140625 42.390625 41.71875 45.5625 
Q 45.3125 48.734375 45.3125 54.390625 
Q 45.3125 60.0625 41.71875 63.234375 
Q 38.140625 66.40625 31.78125 66.40625 
Q 25.390625 66.40625 21.84375 63.234375 
Q 18.3125 60.0625 18.3125 54.390625 
z
" id="DejaVuSans-56"/>
       </defs>
       <use xlink:href="#DejaVuSans-48"/>
       <use x="63.623047" xlink:href="#DejaVuSans-46"/>
       <use x="95.410156" xlink:href="#DejaVuSans-56"/>
      </g>
     </g>
    </g>
    <g id="xtick_5">
     <g id="line2d_9">
      <path clip-path="url(#pde1c17adf9)" d="M 1154.714571 547.2432 
L 1154.714571 73.7856 
" style="fill:none;stroke:#b0b0b0;stroke-linecap:square;stroke-width:0.8;"/>
     </g>
     <g id="line2d_10">
      <g>
       <use style="stroke:#000000;stroke-width:0.8;" x="1154.714571" xlink:href="#mc309f9c193" y="547.2432"/>
      </g>
     </g>
     <g id="text_5">
      <!-- 1.0 -->
      <g transform="translate(1146.763008 561.841637)scale(0.1 -0.1)">
       <defs>
        <path d="M 12.40625 8.296875 
L 28.515625 8.296875 
L 28.515625 63.921875 
L 10.984375 60.40625 
L 10.984375 69.390625 
L 28.421875 72.90625 
L 38.28125 72.90625 
L 38.28125 8.296875 
L 54.390625 8.296875 
L 54.390625 0 
L 12.40625 0 
z
" id="DejaVuSans-49"/>
       </defs>
       <use xlink:href="#DejaVuSans-49"/>
       <use x="63.623047" xlink:href="#DejaVuSans-46"/>
       <use x="95.410156" xlink:href="#DejaVuSans-48"/>
      </g>
     </g>
    </g>
    <g id="text_6">
     <!-- Instruction Count -->
     <g transform="translate(597.36325 583.1182)scale(0.2 -0.2)">
      <defs>
       <path d="M 9.8125 72.90625 
L 19.671875 72.90625 
L 19.671875 0 
L 9.8125 0 
z
" id="DejaVuSans-73"/>
       <path d="M 54.890625 33.015625 
L 54.890625 0 
L 45.90625 0 
L 45.90625 32.71875 
Q 45.90625 40.484375 42.875 44.328125 
Q 39.84375 48.1875 33.796875 48.1875 
Q 26.515625 48.1875 22.3125 43.546875 
Q 18.109375 38.921875 18.109375 30.90625 
L 18.109375 0 
L 9.078125 0 
L 9.078125 54.6875 
L 18.109375 54.6875 
L 18.109375 46.1875 
Q 21.34375 51.125 25.703125 53.5625 
Q 30.078125 56 35.796875 56 
Q 45.21875 56 50.046875 50.171875 
Q 54.890625 44.34375 54.890625 33.015625 
z
" id="DejaVuSans-110"/>
       <path d="M 44.28125 53.078125 
L 44.28125 44.578125 
Q 40.484375 46.53125 36.375 47.5 
Q 32.28125 48.484375 27.875 48.484375 
Q 21.1875 48.484375 17.84375 46.4375 
Q 14.5 44.390625 14.5 40.28125 
Q 14.5 37.15625 16.890625 35.375 
Q 19.28125 33.59375 26.515625 31.984375 
L 29.59375 31.296875 
Q 39.15625 29.25 43.1875 25.515625 
Q 47.21875 21.78125 47.21875 15.09375 
Q 47.21875 7.46875 41.1875 3.015625 
Q 35.15625 -1.421875 24.609375 -1.421875 
Q 20.21875 -1.421875 15.453125 -0.5625 
Q 10.6875 0.296875 5.421875 2 
L 5.421875 11.28125 
Q 10.40625 8.6875 15.234375 7.390625 
Q 20.0625 6.109375 24.8125 6.109375 
Q 31.15625 6.109375 34.5625 8.28125 
Q 37.984375 10.453125 37.984375 14.40625 
Q 37.984375 18.0625 35.515625 20.015625 
Q 33.0625 21.96875 24.703125 23.78125 
L 21.578125 24.515625 
Q 13.234375 26.265625 9.515625 29.90625 
Q 5.8125 33.546875 5.8125 39.890625 
Q 5.8125 47.609375 11.28125 51.796875 
Q 16.75 56 26.8125 56 
Q 31.78125 56 36.171875 55.265625 
Q 40.578125 54.546875 44.28125 53.078125 
z
" id="DejaVuSans-115"/>
       <path d="M 18.3125 70.21875 
L 18.3125 54.6875 
L 36.8125 54.6875 
L 36.8125 47.703125 
L 18.3125 47.703125 
L 18.3125 18.015625 
Q 18.3125 11.328125 20.140625 9.421875 
Q 21.96875 7.515625 27.59375 7.515625 
L 36.8125 7.515625 
L 36.8125 0 
L 27.59375 0 
Q 17.1875 0 13.234375 3.875 
Q 9.28125 7.765625 9.28125 18.015625 
L 9.28125 47.703125 
L 2.6875 47.703125 
L 2.6875 54.6875 
L 9.28125 54.6875 
L 9.28125 70.21875 
z
" id="DejaVuSans-116"/>
       <path d="M 41.109375 46.296875 
Q 39.59375 47.171875 37.8125 47.578125 
Q 36.03125 48 33.890625 48 
Q 26.265625 48 22.1875 43.046875 
Q 18.109375 38.09375 18.109375 28.8125 
L 18.109375 0 
L 9.078125 0 
L 9.078125 54.6875 
L 18.109375 54.6875 
L 18.109375 46.1875 
Q 20.953125 51.171875 25.484375 53.578125 
Q 30.03125 56 36.53125 56 
Q 37.453125 56 38.578125 55.875 
Q 39.703125 55.765625 41.0625 55.515625 
z
" id="DejaVuSans-114"/>
       <path d="M 8.5 21.578125 
L 8.5 54.6875 
L 17.484375 54.6875 
L 17.484375 21.921875 
Q 17.484375 14.15625 20.5 10.265625 
Q 23.53125 6.390625 29.59375 6.390625 
Q 36.859375 6.390625 41.078125 11.03125 
Q 45.3125 15.671875 45.3125 23.6875 
L 45.3125 54.6875 
L 54.296875 54.6875 
L 54.296875 0 
L 45.3125 0 
L 45.3125 8.40625 
Q 42.046875 3.421875 37.71875 1 
Q 33.40625 -1.421875 27.6875 -1.421875 
Q 18.265625 -1.421875 13.375 4.4375 
Q 8.5 10.296875 8.5 21.578125 
z
M 31.109375 56 
z
" id="DejaVuSans-117"/>
       <path d="M 48.78125 52.59375 
L 48.78125 44.1875 
Q 44.96875 46.296875 41.140625 47.34375 
Q 37.3125 48.390625 33.40625 48.390625 
Q 24.65625 48.390625 19.8125 42.84375 
Q 14.984375 37.3125 14.984375 27.296875 
Q 14.984375 17.28125 19.8125 11.734375 
Q 24.65625 6.203125 33.40625 6.203125 
Q 37.3125 6.203125 41.140625 7.25 
Q 44.96875 8.296875 48.78125 10.40625 
L 48.78125 2.09375 
Q 45.015625 0.34375 40.984375 -0.53125 
Q 36.96875 -1.421875 32.421875 -1.421875 
Q 20.0625 -1.421875 12.78125 6.34375 
Q 5.515625 14.109375 5.515625 27.296875 
Q 5.515625 40.671875 12.859375 48.328125 
Q 20.21875 56 33.015625 56 
Q 37.15625 56 41.109375 55.140625 
Q 45.0625 54.296875 48.78125 52.59375 
z
" id="DejaVuSans-99"/>
       <path d="M 9.421875 54.6875 
L 18.40625 54.6875 
L 18.40625 0 
L 9.421875 0 
z
M 9.421875 75.984375 
L 18.40625 75.984375 
L 18.40625 64.59375 
L 9.421875 64.59375 
z
" id="DejaVuSans-105"/>
       <path d="M 30.609375 48.390625 
Q 23.390625 48.390625 19.1875 42.75 
Q 14.984375 37.109375 14.984375 27.296875 
Q 14.984375 17.484375 19.15625 11.84375 
Q 23.34375 6.203125 30.609375 6.203125 
Q 37.796875 6.203125 41.984375 11.859375 
Q 46.1875 17.53125 46.1875 27.296875 
Q 46.1875 37.015625 41.984375 42.703125 
Q 37.796875 48.390625 30.609375 48.390625 
z
M 30.609375 56 
Q 42.328125 56 49.015625 48.375 
Q 55.71875 40.765625 55.71875 27.296875 
Q 55.71875 13.875 49.015625 6.21875 
Q 42.328125 -1.421875 30.609375 -1.421875 
Q 18.84375 -1.421875 12.171875 6.21875 
Q 5.515625 13.875 5.515625 27.296875 
Q 5.515625 40.765625 12.171875 48.375 
Q 18.84375 56 30.609375 56 
z
" id="DejaVuSans-111"/>
       <path id="DejaVuSans-32"/>
       <path d="M 64.40625 67.28125 
L 64.40625 56.890625 
Q 59.421875 61.53125 53.78125 63.8125 
Q 48.140625 66.109375 41.796875 66.109375 
Q 29.296875 66.109375 22.65625 58.46875 
Q 16.015625 50.828125 16.015625 36.375 
Q 16.015625 21.96875 22.65625 14.328125 
Q 29.296875 6.6875 41.796875 6.6875 
Q 48.140625 6.6875 53.78125 8.984375 
Q 59.421875 11.28125 64.40625 15.921875 
L 64.40625 5.609375 
Q 59.234375 2.09375 53.4375 0.328125 
Q 47.65625 -1.421875 41.21875 -1.421875 
Q 24.65625 -1.421875 15.125 8.703125 
Q 5.609375 18.84375 5.609375 36.375 
Q 5.609375 53.953125 15.125 64.078125 
Q 24.65625 74.21875 41.21875 74.21875 
Q 47.75 74.21875 53.53125 72.484375 
Q 59.328125 70.75 64.40625 67.28125 
z
" id="DejaVuSans-67"/>
      </defs>
      <use xlink:href="#DejaVuSans-73"/>
      <use x="29.492188" xlink:href="#DejaVuSans-110"/>
      <use x="92.871094" xlink:href="#DejaVuSans-115"/>
      <use x="144.970703" xlink:href="#DejaVuSans-116"/>
      <use x="184.179688" xlink:href="#DejaVuSans-114"/>
      <use x="225.292969" xlink:href="#DejaVuSans-117"/>
      <use x="288.671875" xlink:href="#DejaVuSans-99"/>
      <use x="343.652344" xlink:href="#DejaVuSans-116"/>
      <use x="382.861328" xlink:href="#DejaVuSans-105"/>
      <use x="410.644531" xlink:href="#DejaVuSans-111"/>
      <use x="471.826172" xlink:href="#DejaVuSans-110"/>
      <use x="535.205078" xlink:href="#DejaVuSans-32"/>
      <use x="566.992188" xlink:href="#DejaVuSans-67"/>
      <use x="636.816406" xlink:href="#DejaVuSans-111"/>
      <use x="697.998047" xlink:href="#DejaVuSans-117"/>
      <use x="761.376953" xlink:href="#DejaVuSans-110"/>
      <use x="824.755859" xlink:href="#DejaVuSans-116"/>
     </g>
    </g>
    <g id="text_7">
     <!-- 1e9 -->
     <g transform="translate(1181.865875 574.519762)scale(0.1 -0.1)">
      <defs>
       <path d="M 56.203125 29.59375 
L 56.203125 25.203125 
L 14.890625 25.203125 
Q 15.484375 15.921875 20.484375 11.0625 
Q 25.484375 6.203125 34.421875 6.203125 
Q 39.59375 6.203125 44.453125 7.46875 
Q 49.3125 8.734375 54.109375 11.28125 
L 54.109375 2.78125 
Q 49.265625 0.734375 44.1875 -0.34375 
Q 39.109375 -1.421875 33.890625 -1.421875 
Q 20.796875 -1.421875 13.15625 6.1875 
Q 5.515625 13.8125 5.515625 26.8125 
Q 5.515625 40.234375 12.765625 48.109375 
Q 20.015625 56 32.328125 56 
Q 43.359375 56 49.78125 48.890625 
Q 56.203125 41.796875 56.203125 29.59375 
z
M 47.21875 32.234375 
Q 47.125 39.59375 43.09375 43.984375 
Q 39.0625 48.390625 32.421875 48.390625 
Q 24.90625 48.390625 20.390625 44.140625 
Q 15.875 39.890625 15.1875 32.171875 
z
" id="DejaVuSans-101"/>
       <path d="M 10.984375 1.515625 
L 10.984375 10.5 
Q 14.703125 8.734375 18.5 7.8125 
Q 22.3125 6.890625 25.984375 6.890625 
Q 35.75 6.890625 40.890625 13.453125 
Q 46.046875 20.015625 46.78125 33.40625 
Q 43.953125 29.203125 39.59375 26.953125 
Q 35.25 24.703125 29.984375 24.703125 
Q 19.046875 24.703125 12.671875 31.3125 
Q 6.296875 37.9375 6.296875 49.421875 
Q 6.296875 60.640625 12.9375 67.421875 
Q 19.578125 74.21875 30.609375 74.21875 
Q 43.265625 74.21875 49.921875 64.515625 
Q 56.59375 54.828125 56.59375 36.375 
Q 56.59375 19.140625 48.40625 8.859375 
Q 40.234375 -1.421875 26.421875 -1.421875 
Q 22.703125 -1.421875 18.890625 -0.6875 
Q 15.09375 0.046875 10.984375 1.515625 
z
M 30.609375 32.421875 
Q 37.25 32.421875 41.125 36.953125 
Q 45.015625 41.5 45.015625 49.421875 
Q 45.015625 57.28125 41.125 61.84375 
Q 37.25 66.40625 30.609375 66.40625 
Q 23.96875 66.40625 20.09375 61.84375 
Q 16.21875 57.28125 16.21875 49.421875 
Q 16.21875 41.5 20.09375 36.953125 
Q 23.96875 32.421875 30.609375 32.421875 
z
" id="DejaVuSans-57"/>
      </defs>
      <use xlink:href="#DejaVuSans-49"/>
      <use x="63.623047" xlink:href="#DejaVuSans-101"/>
      <use x="125.146484" xlink:href="#DejaVuSans-57"/>
     </g>
    </g>
   </g>
   <g id="matplotlib.axis_2">
    <g id="ytick_1">
     <g id="line2d_11">
      <path clip-path="url(#pde1c17adf9)" d="M 166.77 525.7224 
L 1200.744 525.7224 
" style="fill:none;stroke:#b0b0b0;stroke-linecap:square;stroke-width:0.8;"/>
     </g>
     <g id="line2d_12">
      <defs>
       <path d="M 0 0 
L -3.5 0 
" id="m90199496a3" style="stroke:#000000;stroke-width:0.8;"/>
      </defs>
      <g>
       <use style="stroke:#000000;stroke-width:0.8;" x="166.77" xlink:href="#m90199496a3" y="525.7224"/>
      </g>
     </g>
     <g id="text_8">
      <!-- 0 -->
      <g transform="translate(153.4075 529.521619)scale(0.1 -0.1)">
       <use xlink:href="#DejaVuSans-48"/>
      </g>
     </g>
    </g>
    <g id="ytick_2">
     <g id="line2d_13">
      <path clip-path="url(#pde1c17adf9)" d="M 166.77 455.559403 
L 1200.744 455.559403 
" style="fill:none;stroke:#b0b0b0;stroke-linecap:square;stroke-width:0.8;"/>
     </g>
     <g id="line2d_14">
      <g>
       <use style="stroke:#000000;stroke-width:0.8;" x="166.77" xlink:href="#m90199496a3" y="455.559403"/>
      </g>
     </g>
     <g id="text_9">
      <!-- 2 -->
      <g transform="translate(153.4075 459.358622)scale(0.1 -0.1)">
       <use xlink:href="#DejaVuSans-50"/>
      </g>
     </g>
    </g>
    <g id="ytick_3">
     <g id="line2d_15">
      <path clip-path="url(#pde1c17adf9)" d="M 166.77 385.396407 
L 1200.744 385.396407 
" style="fill:none;stroke:#b0b0b0;stroke-linecap:square;stroke-width:0.8;"/>
     </g>
     <g id="line2d_16">
      <g>
       <use style="stroke:#000000;stroke-width:0.8;" x="166.77" xlink:href="#m90199496a3" y="385.396407"/>
      </g>
     </g>
     <g id="text_10">
      <!-- 4 -->
      <g transform="translate(153.4075 389.195625)scale(0.1 -0.1)">
       <use xlink:href="#DejaVuSans-52"/>
      </g>
     </g>
    </g>
    <g id="ytick_4">
     <g id="line2d_17">
      <path clip-path="url(#pde1c17adf9)" d="M 166.77 315.23341 
L 1200.744 315.23341 
" style="fill:none;stroke:#b0b0b0;stroke-linecap:square;stroke-width:0.8;"/>
     </g>
     <g id="line2d_18">
      <g>
       <use style="stroke:#000000;stroke-width:0.8;" x="166.77" xlink:href="#m90199496a3" y="315.23341"/>
      </g>
     </g>
     <g id="text_11">
      <!-- 6 -->
      <g transform="translate(153.4075 319.032629)scale(0.1 -0.1)">
       <use xlink:href="#DejaVuSans-54"/>
      </g>
     </g>
    </g>
    <g id="ytick_5">
     <g id="line2d_19">
      <path clip-path="url(#pde1c17adf9)" d="M 166.77 245.070413 
L 1200.744 245.070413 
" style="fill:none;stroke:#b0b0b0;stroke-linecap:square;stroke-width:0.8;"/>
     </g>
     <g id="line2d_20">
      <g>
       <use style="stroke:#000000;stroke-width:0.8;" x="166.77" xlink:href="#m90199496a3" y="245.070413"/>
      </g>
     </g>
     <g id="text_12">
      <!-- 8 -->
      <g transform="translate(153.4075 248.869632)scale(0.1 -0.1)">
       <use xlink:href="#DejaVuSans-56"/>
      </g>
     </g>
    </g>
    <g id="ytick_6">
     <g id="line2d_21">
      <path clip-path="url(#pde1c17adf9)" d="M 166.77 174.907416 
L 1200.744 174.907416 
" style="fill:none;stroke:#b0b0b0;stroke-linecap:square;stroke-width:0.8;"/>
     </g>
     <g id="line2d_22">
      <g>
       <use style="stroke:#000000;stroke-width:0.8;" x="166.77" xlink:href="#m90199496a3" y="174.907416"/>
      </g>
     </g>
     <g id="text_13">
      <!-- 10 -->
      <g transform="translate(147.045 178.706635)scale(0.1 -0.1)">
       <use xlink:href="#DejaVuSans-49"/>
       <use x="63.623047" xlink:href="#DejaVuSans-48"/>
      </g>
     </g>
    </g>
    <g id="ytick_7">
     <g id="line2d_23">
      <path clip-path="url(#pde1c17adf9)" d="M 166.77 104.74442 
L 1200.744 104.74442 
" style="fill:none;stroke:#b0b0b0;stroke-linecap:square;stroke-width:0.8;"/>
     </g>
     <g id="line2d_24">
      <g>
       <use style="stroke:#000000;stroke-width:0.8;" x="166.77" xlink:href="#m90199496a3" y="104.74442"/>
      </g>
     </g>
     <g id="text_14">
      <!-- 12 -->
      <g transform="translate(147.045 108.543638)scale(0.1 -0.1)">
       <use xlink:href="#DejaVuSans-49"/>
       <use x="63.623047" xlink:href="#DejaVuSans-50"/>
      </g>
     </g>
    </g>
    <g id="text_15">
     <!-- Unused Prefetches to Prefetches Issued Ratio -->
     <g transform="translate(138.885625 537.397212)rotate(-90)scale(0.2 -0.2)">
      <defs>
       <path d="M 8.6875 72.90625 
L 18.609375 72.90625 
L 18.609375 28.609375 
Q 18.609375 16.890625 22.84375 11.734375 
Q 27.09375 6.59375 36.625 6.59375 
Q 46.09375 6.59375 50.34375 11.734375 
Q 54.59375 16.890625 54.59375 28.609375 
L 54.59375 72.90625 
L 64.5 72.90625 
L 64.5 27.390625 
Q 64.5 13.140625 57.4375 5.859375 
Q 50.390625 -1.421875 36.625 -1.421875 
Q 22.796875 -1.421875 15.734375 5.859375 
Q 8.6875 13.140625 8.6875 27.390625 
z
" id="DejaVuSans-85"/>
       <path d="M 45.40625 46.390625 
L 45.40625 75.984375 
L 54.390625 75.984375 
L 54.390625 0 
L 45.40625 0 
L 45.40625 8.203125 
Q 42.578125 3.328125 38.25 0.953125 
Q 33.9375 -1.421875 27.875 -1.421875 
Q 17.96875 -1.421875 11.734375 6.484375 
Q 5.515625 14.40625 5.515625 27.296875 
Q 5.515625 40.1875 11.734375 48.09375 
Q 17.96875 56 27.875 56 
Q 33.9375 56 38.25 53.625 
Q 42.578125 51.265625 45.40625 46.390625 
z
M 14.796875 27.296875 
Q 14.796875 17.390625 18.875 11.75 
Q 22.953125 6.109375 30.078125 6.109375 
Q 37.203125 6.109375 41.296875 11.75 
Q 45.40625 17.390625 45.40625 27.296875 
Q 45.40625 37.203125 41.296875 42.84375 
Q 37.203125 48.484375 30.078125 48.484375 
Q 22.953125 48.484375 18.875 42.84375 
Q 14.796875 37.203125 14.796875 27.296875 
z
" id="DejaVuSans-100"/>
       <path d="M 19.671875 64.796875 
L 19.671875 37.40625 
L 32.078125 37.40625 
Q 38.96875 37.40625 42.71875 40.96875 
Q 46.484375 44.53125 46.484375 51.125 
Q 46.484375 57.671875 42.71875 61.234375 
Q 38.96875 64.796875 32.078125 64.796875 
z
M 9.8125 72.90625 
L 32.078125 72.90625 
Q 44.34375 72.90625 50.609375 67.359375 
Q 56.890625 61.8125 56.890625 51.125 
Q 56.890625 40.328125 50.609375 34.8125 
Q 44.34375 29.296875 32.078125 29.296875 
L 19.671875 29.296875 
L 19.671875 0 
L 9.8125 0 
z
" id="DejaVuSans-80"/>
       <path d="M 37.109375 75.984375 
L 37.109375 68.5 
L 28.515625 68.5 
Q 23.6875 68.5 21.796875 66.546875 
Q 19.921875 64.59375 19.921875 59.515625 
L 19.921875 54.6875 
L 34.71875 54.6875 
L 34.71875 47.703125 
L 19.921875 47.703125 
L 19.921875 0 
L 10.890625 0 
L 10.890625 47.703125 
L 2.296875 47.703125 
L 2.296875 54.6875 
L 10.890625 54.6875 
L 10.890625 58.5 
Q 10.890625 67.625 15.140625 71.796875 
Q 19.390625 75.984375 28.609375 75.984375 
z
" id="DejaVuSans-102"/>
       <path d="M 54.890625 33.015625 
L 54.890625 0 
L 45.90625 0 
L 45.90625 32.71875 
Q 45.90625 40.484375 42.875 44.328125 
Q 39.84375 48.1875 33.796875 48.1875 
Q 26.515625 48.1875 22.3125 43.546875 
Q 18.109375 38.921875 18.109375 30.90625 
L 18.109375 0 
L 9.078125 0 
L 9.078125 75.984375 
L 18.109375 75.984375 
L 18.109375 46.1875 
Q 21.34375 51.125 25.703125 53.5625 
Q 30.078125 56 35.796875 56 
Q 45.21875 56 50.046875 50.171875 
Q 54.890625 44.34375 54.890625 33.015625 
z
" id="DejaVuSans-104"/>
       <path d="M 44.390625 34.1875 
Q 47.5625 33.109375 50.5625 29.59375 
Q 53.5625 26.078125 56.59375 19.921875 
L 66.609375 0 
L 56 0 
L 46.6875 18.703125 
Q 43.0625 26.03125 39.671875 28.421875 
Q 36.28125 30.8125 30.421875 30.8125 
L 19.671875 30.8125 
L 19.671875 0 
L 9.8125 0 
L 9.8125 72.90625 
L 32.078125 72.90625 
Q 44.578125 72.90625 50.734375 67.671875 
Q 56.890625 62.453125 56.890625 51.90625 
Q 56.890625 45.015625 53.6875 40.46875 
Q 50.484375 35.9375 44.390625 34.1875 
z
M 19.671875 64.796875 
L 19.671875 38.921875 
L 32.078125 38.921875 
Q 39.203125 38.921875 42.84375 42.21875 
Q 46.484375 45.515625 46.484375 51.90625 
Q 46.484375 58.296875 42.84375 61.546875 
Q 39.203125 64.796875 32.078125 64.796875 
z
" id="DejaVuSans-82"/>
       <path d="M 34.28125 27.484375 
Q 23.390625 27.484375 19.1875 25 
Q 14.984375 22.515625 14.984375 16.5 
Q 14.984375 11.71875 18.140625 8.90625 
Q 21.296875 6.109375 26.703125 6.109375 
Q 34.1875 6.109375 38.703125 11.40625 
Q 43.21875 16.703125 43.21875 25.484375 
L 43.21875 27.484375 
z
M 52.203125 31.203125 
L 52.203125 0 
L 43.21875 0 
L 43.21875 8.296875 
Q 40.140625 3.328125 35.546875 0.953125 
Q 30.953125 -1.421875 24.3125 -1.421875 
Q 15.921875 -1.421875 10.953125 3.296875 
Q 6 8.015625 6 15.921875 
Q 6 25.140625 12.171875 29.828125 
Q 18.359375 34.515625 30.609375 34.515625 
L 43.21875 34.515625 
L 43.21875 35.40625 
Q 43.21875 41.609375 39.140625 45 
Q 35.0625 48.390625 27.6875 48.390625 
Q 23 48.390625 18.546875 47.265625 
Q 14.109375 46.140625 10.015625 43.890625 
L 10.015625 52.203125 
Q 14.9375 54.109375 19.578125 55.046875 
Q 24.21875 56 28.609375 56 
Q 40.484375 56 46.34375 49.84375 
Q 52.203125 43.703125 52.203125 31.203125 
z
" id="DejaVuSans-97"/>
      </defs>
      <use xlink:href="#DejaVuSans-85"/>
      <use x="73.193359" xlink:href="#DejaVuSans-110"/>
      <use x="136.572266" xlink:href="#DejaVuSans-117"/>
      <use x="199.951172" xlink:href="#DejaVuSans-115"/>
      <use x="252.050781" xlink:href="#DejaVuSans-101"/>
      <use x="313.574219" xlink:href="#DejaVuSans-100"/>
      <use x="377.050781" xlink:href="#DejaVuSans-32"/>
      <use x="408.837891" xlink:href="#DejaVuSans-80"/>
      <use x="467.390625" xlink:href="#DejaVuSans-114"/>
      <use x="506.253906" xlink:href="#DejaVuSans-101"/>
      <use x="567.777344" xlink:href="#DejaVuSans-102"/>
      <use x="602.982422" xlink:href="#DejaVuSans-101"/>
      <use x="664.505859" xlink:href="#DejaVuSans-116"/>
      <use x="703.714844" xlink:href="#DejaVuSans-99"/>
      <use x="758.695312" xlink:href="#DejaVuSans-104"/>
      <use x="822.074219" xlink:href="#DejaVuSans-101"/>
      <use x="883.597656" xlink:href="#DejaVuSans-115"/>
      <use x="935.697266" xlink:href="#DejaVuSans-32"/>
      <use x="967.484375" xlink:href="#DejaVuSans-116"/>
      <use x="1006.693359" xlink:href="#DejaVuSans-111"/>
      <use x="1067.875" xlink:href="#DejaVuSans-32"/>
      <use x="1099.662109" xlink:href="#DejaVuSans-80"/>
      <use x="1158.214844" xlink:href="#DejaVuSans-114"/>
      <use x="1197.078125" xlink:href="#DejaVuSans-101"/>
      <use x="1258.601562" xlink:href="#DejaVuSans-102"/>
      <use x="1293.806641" xlink:href="#DejaVuSans-101"/>
      <use x="1355.330078" xlink:href="#DejaVuSans-116"/>
      <use x="1394.539062" xlink:href="#DejaVuSans-99"/>
      <use x="1449.519531" xlink:href="#DejaVuSans-104"/>
      <use x="1512.898438" xlink:href="#DejaVuSans-101"/>
      <use x="1574.421875" xlink:href="#DejaVuSans-115"/>
      <use x="1626.521484" xlink:href="#DejaVuSans-32"/>
      <use x="1658.308594" xlink:href="#DejaVuSans-73"/>
      <use x="1687.800781" xlink:href="#DejaVuSans-115"/>
      <use x="1739.900391" xlink:href="#DejaVuSans-115"/>
      <use x="1792" xlink:href="#DejaVuSans-117"/>
      <use x="1855.378906" xlink:href="#DejaVuSans-101"/>
      <use x="1916.902344" xlink:href="#DejaVuSans-100"/>
      <use x="1980.378906" xlink:href="#DejaVuSans-32"/>
      <use x="2012.166016" xlink:href="#DejaVuSans-82"/>
      <use x="2079.398438" xlink:href="#DejaVuSans-97"/>
      <use x="2140.677734" xlink:href="#DejaVuSans-116"/>
      <use x="2179.886719" xlink:href="#DejaVuSans-105"/>
      <use x="2207.669922" xlink:href="#DejaVuSans-111"/>
     </g>
    </g>
   </g>
   <g id="line2d_25">
    <path clip-path="url(#pde1c17adf9)" d="M 213.768818 525.7224 
L 263.292288 525.7224 
L 312.816066 525.7224 
L 362.339202 525.68043 
L 411.862814 525.685533 
L 461.386045 525.659 
L 510.909784 525.627457 
L 560.433181 525.569044 
L 609.956561 525.587678 
L 659.480075 525.584153 
L 709.003383 525.658446 
L 758.527615 525.509246 
L 808.050344 525.15739 
L 857.574028 524.840622 
L 907.097271 524.764765 
L 956.620785 523.043181 
L 1006.144479 517.56411 
L 1055.667666 511.138362 
L 1105.19142 518.873319 
L 1153.724163 503.918517 
" style="fill:none;stroke:#ff0000;stroke-linecap:square;stroke-width:1.5;"/>
    <defs>
     <path d="M 0 1.5 
C 0.397805 1.5 0.77937 1.341951 1.06066 1.06066 
C 1.341951 0.77937 1.5 0.397805 1.5 0 
C 1.5 -0.397805 1.341951 -0.77937 1.06066 -1.06066 
C 0.77937 -1.341951 0.397805 -1.5 0 -1.5 
C -0.397805 -1.5 -0.77937 -1.341951 -1.06066 -1.06066 
C -1.341951 -0.77937 -1.5 -0.397805 -1.5 0 
C -1.5 0.397805 -1.341951 0.77937 -1.06066 1.06066 
C -0.77937 1.341951 -0.397805 1.5 0 1.5 
z
" id="m232e38a3ca" style="stroke:#ff0000;"/>
    </defs>
    <g clip-path="url(#pde1c17adf9)">
     <use style="fill:#ff0000;stroke:#ff0000;" x="213.768818" xlink:href="#m232e38a3ca" y="525.7224"/>
     <use style="fill:#ff0000;stroke:#ff0000;" x="263.292288" xlink:href="#m232e38a3ca" y="525.7224"/>
     <use style="fill:#ff0000;stroke:#ff0000;" x="312.816066" xlink:href="#m232e38a3ca" y="525.7224"/>
     <use style="fill:#ff0000;stroke:#ff0000;" x="362.339202" xlink:href="#m232e38a3ca" y="525.68043"/>
     <use style="fill:#ff0000;stroke:#ff0000;" x="411.862814" xlink:href="#m232e38a3ca" y="525.685533"/>
     <use style="fill:#ff0000;stroke:#ff0000;" x="461.386045" xlink:href="#m232e38a3ca" y="525.659"/>
     <use style="fill:#ff0000;stroke:#ff0000;" x="510.909784" xlink:href="#m232e38a3ca" y="525.627457"/>
     <use style="fill:#ff0000;stroke:#ff0000;" x="560.433181" xlink:href="#m232e38a3ca" y="525.569044"/>
     <use style="fill:#ff0000;stroke:#ff0000;" x="609.956561" xlink:href="#m232e38a3ca" y="525.587678"/>
     <use style="fill:#ff0000;stroke:#ff0000;" x="659.480075" xlink:href="#m232e38a3ca" y="525.584153"/>
     <use style="fill:#ff0000;stroke:#ff0000;" x="709.003383" xlink:href="#m232e38a3ca" y="525.658446"/>
     <use style="fill:#ff0000;stroke:#ff0000;" x="758.527615" xlink:href="#m232e38a3ca" y="525.509246"/>
     <use style="fill:#ff0000;stroke:#ff0000;" x="808.050344" xlink:href="#m232e38a3ca" y="525.15739"/>
     <use style="fill:#ff0000;stroke:#ff0000;" x="857.574028" xlink:href="#m232e38a3ca" y="524.840622"/>
     <use style="fill:#ff0000;stroke:#ff0000;" x="907.097271" xlink:href="#m232e38a3ca" y="524.764765"/>
     <use style="fill:#ff0000;stroke:#ff0000;" x="956.620785" xlink:href="#m232e38a3ca" y="523.043181"/>
     <use style="fill:#ff0000;stroke:#ff0000;" x="1006.144479" xlink:href="#m232e38a3ca" y="517.56411"/>
     <use style="fill:#ff0000;stroke:#ff0000;" x="1055.667666" xlink:href="#m232e38a3ca" y="511.138362"/>
     <use style="fill:#ff0000;stroke:#ff0000;" x="1105.19142" xlink:href="#m232e38a3ca" y="518.873319"/>
     <use style="fill:#ff0000;stroke:#ff0000;" x="1153.724163" xlink:href="#m232e38a3ca" y="503.918517"/>
    </g>
   </g>
   <g id="line2d_26">
    <path clip-path="url(#pde1c17adf9)" d="M 213.770054 525.7224 
L 263.295046 525.7224 
L 312.826245 525.7224 
L 362.339392 525.682061 
L 411.865667 525.632401 
L 461.406018 525.523863 
L 510.914158 525.478966 
L 560.435844 524.9177 
L 609.96046 525.7224 
L 659.479985 524.667876 
L 709.003383 520.40586 
L 758.576299 520.473696 
L 808.051389 508.951806 
L 857.573842 509.050456 
L 907.097276 461.576733 
L 956.623352 438.94846 
L 1006.146096 350.093748 
L 1055.667666 152.707735 
L 1105.500296 175.235139 
L 1153.745182 171.826829 
" style="fill:none;stroke:#ffa500;stroke-linecap:square;stroke-width:1.5;"/>
    <defs>
     <path d="M -0 3 
L 3 -3 
L -3 -3 
z
" id="m8168a409ec" style="stroke:#ffa500;stroke-linejoin:miter;"/>
    </defs>
    <g clip-path="url(#pde1c17adf9)">
     <use style="fill:#ffa500;stroke:#ffa500;stroke-linejoin:miter;" x="213.770054" xlink:href="#m8168a409ec" y="525.7224"/>
     <use style="fill:#ffa500;stroke:#ffa500;stroke-linejoin:miter;" x="263.295046" xlink:href="#m8168a409ec" y="525.7224"/>
     <use style="fill:#ffa500;stroke:#ffa500;stroke-linejoin:miter;" x="312.826245" xlink:href="#m8168a409ec" y="525.7224"/>
     <use style="fill:#ffa500;stroke:#ffa500;stroke-linejoin:miter;" x="362.339392" xlink:href="#m8168a409ec" y="525.682061"/>
     <use style="fill:#ffa500;stroke:#ffa500;stroke-linejoin:miter;" x="411.865667" xlink:href="#m8168a409ec" y="525.632401"/>
     <use style="fill:#ffa500;stroke:#ffa500;stroke-linejoin:miter;" x="461.406018" xlink:href="#m8168a409ec" y="525.523863"/>
     <use style="fill:#ffa500;stroke:#ffa500;stroke-linejoin:miter;" x="510.914158" xlink:href="#m8168a409ec" y="525.478966"/>
     <use style="fill:#ffa500;stroke:#ffa500;stroke-linejoin:miter;" x="560.435844" xlink:href="#m8168a409ec" y="524.9177"/>
     <use style="fill:#ffa500;stroke:#ffa500;stroke-linejoin:miter;" x="609.96046" xlink:href="#m8168a409ec" y="525.7224"/>
     <use style="fill:#ffa500;stroke:#ffa500;stroke-linejoin:miter;" x="659.479985" xlink:href="#m8168a409ec" y="524.667876"/>
     <use style="fill:#ffa500;stroke:#ffa500;stroke-linejoin:miter;" x="709.003383" xlink:href="#m8168a409ec" y="520.40586"/>
     <use style="fill:#ffa500;stroke:#ffa500;stroke-linejoin:miter;" x="758.576299" xlink:href="#m8168a409ec" y="520.473696"/>
     <use style="fill:#ffa500;stroke:#ffa500;stroke-linejoin:miter;" x="808.051389" xlink:href="#m8168a409ec" y="508.951806"/>
     <use style="fill:#ffa500;stroke:#ffa500;stroke-linejoin:miter;" x="857.573842" xlink:href="#m8168a409ec" y="509.050456"/>
     <use style="fill:#ffa500;stroke:#ffa500;stroke-linejoin:miter;" x="907.097276" xlink:href="#m8168a409ec" y="461.576733"/>
     <use style="fill:#ffa500;stroke:#ffa500;stroke-linejoin:miter;" x="956.623352" xlink:href="#m8168a409ec" y="438.94846"/>
     <use style="fill:#ffa500;stroke:#ffa500;stroke-linejoin:miter;" x="1006.146096" xlink:href="#m8168a409ec" y="350.093748"/>
     <use style="fill:#ffa500;stroke:#ffa500;stroke-linejoin:miter;" x="1055.667666" xlink:href="#m8168a409ec" y="152.707735"/>
     <use style="fill:#ffa500;stroke:#ffa500;stroke-linejoin:miter;" x="1105.500296" xlink:href="#m8168a409ec" y="175.235139"/>
     <use style="fill:#ffa500;stroke:#ffa500;stroke-linejoin:miter;" x="1153.745182" xlink:href="#m8168a409ec" y="171.826829"/>
    </g>
   </g>
   <g id="line2d_27">
    <path clip-path="url(#pde1c17adf9)" d="M 213.768913 525.7224 
L 263.292395 525.7224 
L 312.815697 525.7224 
L 362.339404 525.703697 
L 411.862636 525.703794 
L 461.386247 525.7224 
L 510.909606 525.713256 
L 560.433764 525.657253 
L 609.956657 525.679243 
L 659.480468 525.502499 
L 709.003395 525.383159 
L 758.527622 524.98588 
L 808.050439 524.453936 
L 857.574325 523.215778 
L 907.097758 520.434719 
L 956.620785 513.568883 
L 1006.144586 493.790152 
L 1055.668344 462.173968 
L 1105.197505 483.837798 
L 1153.724258 443.950503 
" style="fill:none;stroke:#ffff00;stroke-linecap:square;stroke-width:1.5;"/>
    <defs>
     <path d="M -3 3 
L 3 3 
L 3 -3 
L -3 -3 
z
" id="m5d1012ddb3" style="stroke:#ffff00;stroke-linejoin:miter;"/>
    </defs>
    <g clip-path="url(#pde1c17adf9)">
     <use style="fill:#ffff00;stroke:#ffff00;stroke-linejoin:miter;" x="213.768913" xlink:href="#m5d1012ddb3" y="525.7224"/>
     <use style="fill:#ffff00;stroke:#ffff00;stroke-linejoin:miter;" x="263.292395" xlink:href="#m5d1012ddb3" y="525.7224"/>
     <use style="fill:#ffff00;stroke:#ffff00;stroke-linejoin:miter;" x="312.815697" xlink:href="#m5d1012ddb3" y="525.7224"/>
     <use style="fill:#ffff00;stroke:#ffff00;stroke-linejoin:miter;" x="362.339404" xlink:href="#m5d1012ddb3" y="525.703697"/>
     <use style="fill:#ffff00;stroke:#ffff00;stroke-linejoin:miter;" x="411.862636" xlink:href="#m5d1012ddb3" y="525.703794"/>
     <use style="fill:#ffff00;stroke:#ffff00;stroke-linejoin:miter;" x="461.386247" xlink:href="#m5d1012ddb3" y="525.7224"/>
     <use style="fill:#ffff00;stroke:#ffff00;stroke-linejoin:miter;" x="510.909606" xlink:href="#m5d1012ddb3" y="525.713256"/>
     <use style="fill:#ffff00;stroke:#ffff00;stroke-linejoin:miter;" x="560.433764" xlink:href="#m5d1012ddb3" y="525.657253"/>
     <use style="fill:#ffff00;stroke:#ffff00;stroke-linejoin:miter;" x="609.956657" xlink:href="#m5d1012ddb3" y="525.679243"/>
     <use style="fill:#ffff00;stroke:#ffff00;stroke-linejoin:miter;" x="659.480468" xlink:href="#m5d1012ddb3" y="525.502499"/>
     <use style="fill:#ffff00;stroke:#ffff00;stroke-linejoin:miter;" x="709.003395" xlink:href="#m5d1012ddb3" y="525.383159"/>
     <use style="fill:#ffff00;stroke:#ffff00;stroke-linejoin:miter;" x="758.527622" xlink:href="#m5d1012ddb3" y="524.98588"/>
     <use style="fill:#ffff00;stroke:#ffff00;stroke-linejoin:miter;" x="808.050439" xlink:href="#m5d1012ddb3" y="524.453936"/>
     <use style="fill:#ffff00;stroke:#ffff00;stroke-linejoin:miter;" x="857.574325" xlink:href="#m5d1012ddb3" y="523.215778"/>
     <use style="fill:#ffff00;stroke:#ffff00;stroke-linejoin:miter;" x="907.097758" xlink:href="#m5d1012ddb3" y="520.434719"/>
     <use style="fill:#ffff00;stroke:#ffff00;stroke-linejoin:miter;" x="956.620785" xlink:href="#m5d1012ddb3" y="513.568883"/>
     <use style="fill:#ffff00;stroke:#ffff00;stroke-linejoin:miter;" x="1006.144586" xlink:href="#m5d1012ddb3" y="493.790152"/>
     <use style="fill:#ffff00;stroke:#ffff00;stroke-linejoin:miter;" x="1055.668344" xlink:href="#m5d1012ddb3" y="462.173968"/>
     <use style="fill:#ffff00;stroke:#ffff00;stroke-linejoin:miter;" x="1105.197505" xlink:href="#m5d1012ddb3" y="483.837798"/>
     <use style="fill:#ffff00;stroke:#ffff00;stroke-linejoin:miter;" x="1153.724258" xlink:href="#m5d1012ddb3" y="443.950503"/>
    </g>
   </g>
   <g id="line2d_28">
    <path clip-path="url(#pde1c17adf9)" d="M 213.768913 525.7224 
L 263.292384 525.7224 
L 312.815971 525.7224 
L 362.339392 525.700821 
L 411.862624 525.689982 
L 461.386235 525.700761 
L 510.909594 525.668195 
L 560.433181 525.695108 
L 609.956657 525.639791 
L 659.480075 525.615393 
L 709.003383 525.410329 
L 758.526849 525.19054 
L 808.050629 524.806573 
L 857.573933 524.730282 
L 907.097366 524.325434 
L 956.62107 521.641466 
L 1006.144194 514.200097 
L 1055.667856 503.558561 
L 1105.191317 512.980699 
L 1153.724258 494.120791 
" style="fill:none;stroke:#008000;stroke-linecap:square;stroke-width:1.5;"/>
    <defs>
     <path d="M -1 3 
L 1 3 
L 1 1 
L 3 1 
L 3 -1 
L 1 -1 
L 1 -3 
L -1 -3 
L -1 -1 
L -3 -1 
L -3 1 
L -1 1 
z
" id="md176b7e8f1" style="stroke:#008000;stroke-linejoin:miter;"/>
    </defs>
    <g clip-path="url(#pde1c17adf9)">
     <use style="fill:#008000;stroke:#008000;stroke-linejoin:miter;" x="213.768913" xlink:href="#md176b7e8f1" y="525.7224"/>
     <use style="fill:#008000;stroke:#008000;stroke-linejoin:miter;" x="263.292384" xlink:href="#md176b7e8f1" y="525.7224"/>
     <use style="fill:#008000;stroke:#008000;stroke-linejoin:miter;" x="312.815971" xlink:href="#md176b7e8f1" y="525.7224"/>
     <use style="fill:#008000;stroke:#008000;stroke-linejoin:miter;" x="362.339392" xlink:href="#md176b7e8f1" y="525.700821"/>
     <use style="fill:#008000;stroke:#008000;stroke-linejoin:miter;" x="411.862624" xlink:href="#md176b7e8f1" y="525.689982"/>
     <use style="fill:#008000;stroke:#008000;stroke-linejoin:miter;" x="461.386235" xlink:href="#md176b7e8f1" y="525.700761"/>
     <use style="fill:#008000;stroke:#008000;stroke-linejoin:miter;" x="510.909594" xlink:href="#md176b7e8f1" y="525.668195"/>
     <use style="fill:#008000;stroke:#008000;stroke-linejoin:miter;" x="560.433181" xlink:href="#md176b7e8f1" y="525.695108"/>
     <use style="fill:#008000;stroke:#008000;stroke-linejoin:miter;" x="609.956657" xlink:href="#md176b7e8f1" y="525.639791"/>
     <use style="fill:#008000;stroke:#008000;stroke-linejoin:miter;" x="659.480075" xlink:href="#md176b7e8f1" y="525.615393"/>
     <use style="fill:#008000;stroke:#008000;stroke-linejoin:miter;" x="709.003383" xlink:href="#md176b7e8f1" y="525.410329"/>
     <use style="fill:#008000;stroke:#008000;stroke-linejoin:miter;" x="758.526849" xlink:href="#md176b7e8f1" y="525.19054"/>
     <use style="fill:#008000;stroke:#008000;stroke-linejoin:miter;" x="808.050629" xlink:href="#md176b7e8f1" y="524.806573"/>
     <use style="fill:#008000;stroke:#008000;stroke-linejoin:miter;" x="857.573933" xlink:href="#md176b7e8f1" y="524.730282"/>
     <use style="fill:#008000;stroke:#008000;stroke-linejoin:miter;" x="907.097366" xlink:href="#md176b7e8f1" y="524.325434"/>
     <use style="fill:#008000;stroke:#008000;stroke-linejoin:miter;" x="956.62107" xlink:href="#md176b7e8f1" y="521.641466"/>
     <use style="fill:#008000;stroke:#008000;stroke-linejoin:miter;" x="1006.144194" xlink:href="#md176b7e8f1" y="514.200097"/>
     <use style="fill:#008000;stroke:#008000;stroke-linejoin:miter;" x="1055.667856" xlink:href="#md176b7e8f1" y="503.558561"/>
     <use style="fill:#008000;stroke:#008000;stroke-linejoin:miter;" x="1105.191317" xlink:href="#md176b7e8f1" y="512.980699"/>
     <use style="fill:#008000;stroke:#008000;stroke-linejoin:miter;" x="1153.724258" xlink:href="#md176b7e8f1" y="494.120791"/>
    </g>
   </g>
   <g id="line2d_29">
    <path clip-path="url(#pde1c17adf9)" d="M 213.769008 525.7224 
L 263.292384 525.7224 
L 312.815781 525.7224 
L 362.339111 525.692881 
L 411.862585 525.659258 
L 461.386045 525.671606 
L 510.909689 525.542129 
L 560.433752 525.555874 
L 609.956466 525.519167 
L 659.480266 525.332802 
L 709.003478 525.038063 
L 758.526945 524.985883 
L 808.050629 524.664704 
L 857.574313 524.573523 
L 907.097556 524.596855 
L 956.62107 524.497636 
L 1006.144194 524.182043 
L 1055.667951 523.662848 
L 1105.193345 524.635597 
L 1153.724353 523.493644 
" style="fill:none;stroke:#0000ff;stroke-linecap:square;stroke-width:1.5;"/>
    <defs>
     <path d="M -1.5 3 
L 0 1.5 
L 1.5 3 
L 3 1.5 
L 1.5 0 
L 3 -1.5 
L 1.5 -3 
L 0 -1.5 
L -1.5 -3 
L -3 -1.5 
L -1.5 0 
L -3 1.5 
z
" id="mc8e374203d" style="stroke:#0000ff;stroke-linejoin:miter;"/>
    </defs>
    <g clip-path="url(#pde1c17adf9)">
     <use style="fill:#0000ff;stroke:#0000ff;stroke-linejoin:miter;" x="213.769008" xlink:href="#mc8e374203d" y="525.7224"/>
     <use style="fill:#0000ff;stroke:#0000ff;stroke-linejoin:miter;" x="263.292384" xlink:href="#mc8e374203d" y="525.7224"/>
     <use style="fill:#0000ff;stroke:#0000ff;stroke-linejoin:miter;" x="312.815781" xlink:href="#mc8e374203d" y="525.7224"/>
     <use style="fill:#0000ff;stroke:#0000ff;stroke-linejoin:miter;" x="362.339111" xlink:href="#mc8e374203d" y="525.692881"/>
     <use style="fill:#0000ff;stroke:#0000ff;stroke-linejoin:miter;" x="411.862585" xlink:href="#mc8e374203d" y="525.659258"/>
     <use style="fill:#0000ff;stroke:#0000ff;stroke-linejoin:miter;" x="461.386045" xlink:href="#mc8e374203d" y="525.671606"/>
     <use style="fill:#0000ff;stroke:#0000ff;stroke-linejoin:miter;" x="510.909689" xlink:href="#mc8e374203d" y="525.542129"/>
     <use style="fill:#0000ff;stroke:#0000ff;stroke-linejoin:miter;" x="560.433752" xlink:href="#mc8e374203d" y="525.555874"/>
     <use style="fill:#0000ff;stroke:#0000ff;stroke-linejoin:miter;" x="609.956466" xlink:href="#mc8e374203d" y="525.519167"/>
     <use style="fill:#0000ff;stroke:#0000ff;stroke-linejoin:miter;" x="659.480266" xlink:href="#mc8e374203d" y="525.332802"/>
     <use style="fill:#0000ff;stroke:#0000ff;stroke-linejoin:miter;" x="709.003478" xlink:href="#mc8e374203d" y="525.038063"/>
     <use style="fill:#0000ff;stroke:#0000ff;stroke-linejoin:miter;" x="758.526945" xlink:href="#mc8e374203d" y="524.985883"/>
     <use style="fill:#0000ff;stroke:#0000ff;stroke-linejoin:miter;" x="808.050629" xlink:href="#mc8e374203d" y="524.664704"/>
     <use style="fill:#0000ff;stroke:#0000ff;stroke-linejoin:miter;" x="857.574313" xlink:href="#mc8e374203d" y="524.573523"/>
     <use style="fill:#0000ff;stroke:#0000ff;stroke-linejoin:miter;" x="907.097556" xlink:href="#mc8e374203d" y="524.596855"/>
     <use style="fill:#0000ff;stroke:#0000ff;stroke-linejoin:miter;" x="956.62107" xlink:href="#mc8e374203d" y="524.497636"/>
     <use style="fill:#0000ff;stroke:#0000ff;stroke-linejoin:miter;" x="1006.144194" xlink:href="#mc8e374203d" y="524.182043"/>
     <use style="fill:#0000ff;stroke:#0000ff;stroke-linejoin:miter;" x="1055.667951" xlink:href="#mc8e374203d" y="523.662848"/>
     <use style="fill:#0000ff;stroke:#0000ff;stroke-linejoin:miter;" x="1105.193345" xlink:href="#mc8e374203d" y="524.635597"/>
     <use style="fill:#0000ff;stroke:#0000ff;stroke-linejoin:miter;" x="1153.724353" xlink:href="#mc8e374203d" y="523.493644"/>
    </g>
   </g>
   <g id="line2d_30">
    <path clip-path="url(#pde1c17adf9)" d="M 213.769108 525.7224 
L 263.292292 525.7224 
L 312.815781 525.7224 
L 362.339492 525.7224 
L 411.862914 525.700845 
L 461.386335 525.711675 
L 510.909884 525.711626 
L 560.433186 525.711498 
L 609.956466 525.700556 
L 659.479985 525.699825 
L 709.003478 525.710576 
L 758.52714 525.566939 
L 808.050348 525.561905 
L 857.574028 525.608499 
L 907.097752 525.459229 
L 956.62088 525.445954 
L 1006.144389 525.228282 
L 1055.667951 487.132496 
L 1105.222369 521.776307 
L 1153.724263 476.755108 
" style="fill:none;stroke:#ff00ff;stroke-linecap:square;stroke-width:1.5;"/>
    <defs>
     <path d="M -0 4.242641 
L 4.242641 0 
L 0 -4.242641 
L -4.242641 -0 
z
" id="m487de774e2" style="stroke:#ff00ff;stroke-linejoin:miter;"/>
    </defs>
    <g clip-path="url(#pde1c17adf9)">
     <use style="fill:#ff00ff;stroke:#ff00ff;stroke-linejoin:miter;" x="213.769108" xlink:href="#m487de774e2" y="525.7224"/>
     <use style="fill:#ff00ff;stroke:#ff00ff;stroke-linejoin:miter;" x="263.292292" xlink:href="#m487de774e2" y="525.7224"/>
     <use style="fill:#ff00ff;stroke:#ff00ff;stroke-linejoin:miter;" x="312.815781" xlink:href="#m487de774e2" y="525.7224"/>
     <use style="fill:#ff00ff;stroke:#ff00ff;stroke-linejoin:miter;" x="362.339492" xlink:href="#m487de774e2" y="525.7224"/>
     <use style="fill:#ff00ff;stroke:#ff00ff;stroke-linejoin:miter;" x="411.862914" xlink:href="#m487de774e2" y="525.700845"/>
     <use style="fill:#ff00ff;stroke:#ff00ff;stroke-linejoin:miter;" x="461.386335" xlink:href="#m487de774e2" y="525.711675"/>
     <use style="fill:#ff00ff;stroke:#ff00ff;stroke-linejoin:miter;" x="510.909884" xlink:href="#m487de774e2" y="525.711626"/>
     <use style="fill:#ff00ff;stroke:#ff00ff;stroke-linejoin:miter;" x="560.433186" xlink:href="#m487de774e2" y="525.711498"/>
     <use style="fill:#ff00ff;stroke:#ff00ff;stroke-linejoin:miter;" x="609.956466" xlink:href="#m487de774e2" y="525.700556"/>
     <use style="fill:#ff00ff;stroke:#ff00ff;stroke-linejoin:miter;" x="659.479985" xlink:href="#m487de774e2" y="525.699825"/>
     <use style="fill:#ff00ff;stroke:#ff00ff;stroke-linejoin:miter;" x="709.003478" xlink:href="#m487de774e2" y="525.710576"/>
     <use style="fill:#ff00ff;stroke:#ff00ff;stroke-linejoin:miter;" x="758.52714" xlink:href="#m487de774e2" y="525.566939"/>
     <use style="fill:#ff00ff;stroke:#ff00ff;stroke-linejoin:miter;" x="808.050348" xlink:href="#m487de774e2" y="525.561905"/>
     <use style="fill:#ff00ff;stroke:#ff00ff;stroke-linejoin:miter;" x="857.574028" xlink:href="#m487de774e2" y="525.608499"/>
     <use style="fill:#ff00ff;stroke:#ff00ff;stroke-linejoin:miter;" x="907.097752" xlink:href="#m487de774e2" y="525.459229"/>
     <use style="fill:#ff00ff;stroke:#ff00ff;stroke-linejoin:miter;" x="956.62088" xlink:href="#m487de774e2" y="525.445954"/>
     <use style="fill:#ff00ff;stroke:#ff00ff;stroke-linejoin:miter;" x="1006.144389" xlink:href="#m487de774e2" y="525.228282"/>
     <use style="fill:#ff00ff;stroke:#ff00ff;stroke-linejoin:miter;" x="1055.667951" xlink:href="#m487de774e2" y="487.132496"/>
     <use style="fill:#ff00ff;stroke:#ff00ff;stroke-linejoin:miter;" x="1105.222369" xlink:href="#m487de774e2" y="521.776307"/>
     <use style="fill:#ff00ff;stroke:#ff00ff;stroke-linejoin:miter;" x="1153.724263" xlink:href="#m487de774e2" y="476.755108"/>
    </g>
   </g>
   <g id="line2d_31">
    <path clip-path="url(#pde1c17adf9)" d="M 213.768919 525.7224 
L 263.292389 525.7224 
L 312.815977 525.7224 
L 362.339398 525.668542 
L 411.86263 525.675211 
L 461.386241 525.668397 
L 510.9096 525.661459 
L 560.433187 525.654347 
L 609.956663 525.639888 
L 659.480081 525.589383 
L 709.003389 525.402552 
L 758.526855 525.252064 
L 808.050635 525.079102 
L 857.573939 524.866799 
L 907.097372 524.609068 
L 956.620708 522.612582 
L 1006.1442 517.333215 
L 1055.667957 509.071842 
L 1105.191317 518.373085 
L 1153.724264 503.385444 
" style="fill:none;stroke:#000000;stroke-linecap:square;stroke-width:1.5;"/>
    <defs>
     <path d="M 0 -3 
L -2.85317 -0.927051 
L -1.763356 2.427051 
L 1.763356 2.427051 
L 2.85317 -0.927051 
z
" id="m614e319504" style="stroke:#000000;stroke-linejoin:miter;"/>
    </defs>
    <g clip-path="url(#pde1c17adf9)">
     <use style="stroke:#000000;stroke-linejoin:miter;" x="213.768919" xlink:href="#m614e319504" y="525.7224"/>
     <use style="stroke:#000000;stroke-linejoin:miter;" x="263.292389" xlink:href="#m614e319504" y="525.7224"/>
     <use style="stroke:#000000;stroke-linejoin:miter;" x="312.815977" xlink:href="#m614e319504" y="525.7224"/>
     <use style="stroke:#000000;stroke-linejoin:miter;" x="362.339398" xlink:href="#m614e319504" y="525.668542"/>
     <use style="stroke:#000000;stroke-linejoin:miter;" x="411.86263" xlink:href="#m614e319504" y="525.675211"/>
     <use style="stroke:#000000;stroke-linejoin:miter;" x="461.386241" xlink:href="#m614e319504" y="525.668397"/>
     <use style="stroke:#000000;stroke-linejoin:miter;" x="510.9096" xlink:href="#m614e319504" y="525.661459"/>
     <use style="stroke:#000000;stroke-linejoin:miter;" x="560.433187" xlink:href="#m614e319504" y="525.654347"/>
     <use style="stroke:#000000;stroke-linejoin:miter;" x="609.956663" xlink:href="#m614e319504" y="525.639888"/>
     <use style="stroke:#000000;stroke-linejoin:miter;" x="659.480081" xlink:href="#m614e319504" y="525.589383"/>
     <use style="stroke:#000000;stroke-linejoin:miter;" x="709.003389" xlink:href="#m614e319504" y="525.402552"/>
     <use style="stroke:#000000;stroke-linejoin:miter;" x="758.526855" xlink:href="#m614e319504" y="525.252064"/>
     <use style="stroke:#000000;stroke-linejoin:miter;" x="808.050635" xlink:href="#m614e319504" y="525.079102"/>
     <use style="stroke:#000000;stroke-linejoin:miter;" x="857.573939" xlink:href="#m614e319504" y="524.866799"/>
     <use style="stroke:#000000;stroke-linejoin:miter;" x="907.097372" xlink:href="#m614e319504" y="524.609068"/>
     <use style="stroke:#000000;stroke-linejoin:miter;" x="956.620708" xlink:href="#m614e319504" y="522.612582"/>
     <use style="stroke:#000000;stroke-linejoin:miter;" x="1006.1442" xlink:href="#m614e319504" y="517.333215"/>
     <use style="stroke:#000000;stroke-linejoin:miter;" x="1055.667957" xlink:href="#m614e319504" y="509.071842"/>
     <use style="stroke:#000000;stroke-linejoin:miter;" x="1105.191317" xlink:href="#m614e319504" y="518.373085"/>
     <use style="stroke:#000000;stroke-linejoin:miter;" x="1153.724264" xlink:href="#m614e319504" y="503.385444"/>
    </g>
   </g>
   <g id="line2d_32">
    <path clip-path="url(#pde1c17adf9)" d="M 213.768818 525.7224 
L 263.292384 525.7224 
L 312.815685 525.7224 
L 362.339392 525.686213 
L 411.862719 525.686138 
L 461.38633 525.673917 
L 510.909784 525.685996 
L 560.433048 525.689751 
L 609.956466 525.677022 
L 659.480266 525.624798 
L 709.003383 525.525061 
L 758.527046 525.449008 
L 808.05073 525.453043 
L 857.574123 525.556697 
L 907.097271 525.485104 
L 956.62126 525.289706 
L 1006.144479 524.109847 
L 1056.658738 523.708294 
L 1106.18223 525.55173 
L 1153.724638 523.104567 
" style="fill:none;stroke:#a52a2a;stroke-linecap:square;stroke-width:1.5;"/>
    <defs>
     <path d="M -1.5 -2.598076 
L -3 -0 
L -1.5 2.598076 
L 1.5 2.598076 
L 3 0 
L 1.5 -2.598076 
z
" id="m74c101b062" style="stroke:#a52a2a;stroke-linejoin:miter;"/>
    </defs>
    <g clip-path="url(#pde1c17adf9)">
     <use style="fill:#a52a2a;stroke:#a52a2a;stroke-linejoin:miter;" x="213.768818" xlink:href="#m74c101b062" y="525.7224"/>
     <use style="fill:#a52a2a;stroke:#a52a2a;stroke-linejoin:miter;" x="263.292384" xlink:href="#m74c101b062" y="525.7224"/>
     <use style="fill:#a52a2a;stroke:#a52a2a;stroke-linejoin:miter;" x="312.815685" xlink:href="#m74c101b062" y="525.7224"/>
     <use style="fill:#a52a2a;stroke:#a52a2a;stroke-linejoin:miter;" x="362.339392" xlink:href="#m74c101b062" y="525.686213"/>
     <use style="fill:#a52a2a;stroke:#a52a2a;stroke-linejoin:miter;" x="411.862719" xlink:href="#m74c101b062" y="525.686138"/>
     <use style="fill:#a52a2a;stroke:#a52a2a;stroke-linejoin:miter;" x="461.38633" xlink:href="#m74c101b062" y="525.673917"/>
     <use style="fill:#a52a2a;stroke:#a52a2a;stroke-linejoin:miter;" x="510.909784" xlink:href="#m74c101b062" y="525.685996"/>
     <use style="fill:#a52a2a;stroke:#a52a2a;stroke-linejoin:miter;" x="560.433048" xlink:href="#m74c101b062" y="525.689751"/>
     <use style="fill:#a52a2a;stroke:#a52a2a;stroke-linejoin:miter;" x="609.956466" xlink:href="#m74c101b062" y="525.677022"/>
     <use style="fill:#a52a2a;stroke:#a52a2a;stroke-linejoin:miter;" x="659.480266" xlink:href="#m74c101b062" y="525.624798"/>
     <use style="fill:#a52a2a;stroke:#a52a2a;stroke-linejoin:miter;" x="709.003383" xlink:href="#m74c101b062" y="525.525061"/>
     <use style="fill:#a52a2a;stroke:#a52a2a;stroke-linejoin:miter;" x="758.527046" xlink:href="#m74c101b062" y="525.449008"/>
     <use style="fill:#a52a2a;stroke:#a52a2a;stroke-linejoin:miter;" x="808.05073" xlink:href="#m74c101b062" y="525.453043"/>
     <use style="fill:#a52a2a;stroke:#a52a2a;stroke-linejoin:miter;" x="857.574123" xlink:href="#m74c101b062" y="525.556697"/>
     <use style="fill:#a52a2a;stroke:#a52a2a;stroke-linejoin:miter;" x="907.097271" xlink:href="#m74c101b062" y="525.485104"/>
     <use style="fill:#a52a2a;stroke:#a52a2a;stroke-linejoin:miter;" x="956.62126" xlink:href="#m74c101b062" y="525.289706"/>
     <use style="fill:#a52a2a;stroke:#a52a2a;stroke-linejoin:miter;" x="1006.144479" xlink:href="#m74c101b062" y="524.109847"/>
     <use style="fill:#a52a2a;stroke:#a52a2a;stroke-linejoin:miter;" x="1056.658738" xlink:href="#m74c101b062" y="523.708294"/>
     <use style="fill:#a52a2a;stroke:#a52a2a;stroke-linejoin:miter;" x="1106.18223" xlink:href="#m74c101b062" y="525.55173"/>
     <use style="fill:#a52a2a;stroke:#a52a2a;stroke-linejoin:miter;" x="1153.724638" xlink:href="#m74c101b062" y="523.104567"/>
    </g>
   </g>
   <g id="line2d_33">
    <path clip-path="url(#pde1c17adf9)" d="M 213.768818 525.7224 
L 263.292384 525.7224 
L 312.815781 525.7224 
L 362.339392 525.543491 
L 411.862719 525.456979 
L 461.386235 525.295011 
L 510.909784 524.929455 
L 560.433181 524.126209 
L 609.956657 521.969866 
L 659.480075 519.024075 
L 709.003383 514.218537 
L 758.526945 503.428999 
L 808.050439 501.361773 
L 857.573933 486.085225 
L 907.097366 451.319839 
L 956.620975 406.572607 
L 1006.144289 307.758532 
L 1055.667666 95.3064 
L 1105.191206 127.715172 
L 1153.724258 109.390271 
" style="fill:none;stroke:#ffc0cb;stroke-linecap:square;stroke-width:1.5;"/>
    <defs>
     <path d="M 0 1.5 
C 0.397805 1.5 0.77937 1.341951 1.06066 1.06066 
C 1.341951 0.77937 1.5 0.397805 1.5 0 
C 1.5 -0.397805 1.341951 -0.77937 1.06066 -1.06066 
C 0.77937 -1.341951 0.397805 -1.5 0 -1.5 
C -0.397805 -1.5 -0.77937 -1.341951 -1.06066 -1.06066 
C -1.341951 -0.77937 -1.5 -0.397805 -1.5 0 
C -1.5 0.397805 -1.341951 0.77937 -1.06066 1.06066 
C -0.77937 1.341951 -0.397805 1.5 0 1.5 
z
" id="med30c5eb28" style="stroke:#ffc0cb;"/>
    </defs>
    <g clip-path="url(#pde1c17adf9)">
     <use style="fill:#ffc0cb;stroke:#ffc0cb;" x="213.768818" xlink:href="#med30c5eb28" y="525.7224"/>
     <use style="fill:#ffc0cb;stroke:#ffc0cb;" x="263.292384" xlink:href="#med30c5eb28" y="525.7224"/>
     <use style="fill:#ffc0cb;stroke:#ffc0cb;" x="312.815781" xlink:href="#med30c5eb28" y="525.7224"/>
     <use style="fill:#ffc0cb;stroke:#ffc0cb;" x="362.339392" xlink:href="#med30c5eb28" y="525.543491"/>
     <use style="fill:#ffc0cb;stroke:#ffc0cb;" x="411.862719" xlink:href="#med30c5eb28" y="525.456979"/>
     <use style="fill:#ffc0cb;stroke:#ffc0cb;" x="461.386235" xlink:href="#med30c5eb28" y="525.295011"/>
     <use style="fill:#ffc0cb;stroke:#ffc0cb;" x="510.909784" xlink:href="#med30c5eb28" y="524.929455"/>
     <use style="fill:#ffc0cb;stroke:#ffc0cb;" x="560.433181" xlink:href="#med30c5eb28" y="524.126209"/>
     <use style="fill:#ffc0cb;stroke:#ffc0cb;" x="609.956657" xlink:href="#med30c5eb28" y="521.969866"/>
     <use style="fill:#ffc0cb;stroke:#ffc0cb;" x="659.480075" xlink:href="#med30c5eb28" y="519.024075"/>
     <use style="fill:#ffc0cb;stroke:#ffc0cb;" x="709.003383" xlink:href="#med30c5eb28" y="514.218537"/>
     <use style="fill:#ffc0cb;stroke:#ffc0cb;" x="758.526945" xlink:href="#med30c5eb28" y="503.428999"/>
     <use style="fill:#ffc0cb;stroke:#ffc0cb;" x="808.050439" xlink:href="#med30c5eb28" y="501.361773"/>
     <use style="fill:#ffc0cb;stroke:#ffc0cb;" x="857.573933" xlink:href="#med30c5eb28" y="486.085225"/>
     <use style="fill:#ffc0cb;stroke:#ffc0cb;" x="907.097366" xlink:href="#med30c5eb28" y="451.319839"/>
     <use style="fill:#ffc0cb;stroke:#ffc0cb;" x="956.620975" xlink:href="#med30c5eb28" y="406.572607"/>
     <use style="fill:#ffc0cb;stroke:#ffc0cb;" x="1006.144289" xlink:href="#med30c5eb28" y="307.758532"/>
     <use style="fill:#ffc0cb;stroke:#ffc0cb;" x="1055.667666" xlink:href="#med30c5eb28" y="95.3064"/>
     <use style="fill:#ffc0cb;stroke:#ffc0cb;" x="1105.191206" xlink:href="#med30c5eb28" y="127.715172"/>
     <use style="fill:#ffc0cb;stroke:#ffc0cb;" x="1153.724258" xlink:href="#med30c5eb28" y="109.390271"/>
    </g>
   </g>
   <g id="patch_3">
    <path d="M 166.77 547.2432 
L 166.77 73.7856 
" style="fill:none;stroke:#000000;stroke-linecap:square;stroke-linejoin:miter;stroke-width:0.8;"/>
   </g>
   <g id="patch_4">
    <path d="M 1200.744 547.2432 
L 1200.744 73.7856 
" style="fill:none;stroke:#000000;stroke-linecap:square;stroke-linejoin:miter;stroke-width:0.8;"/>
   </g>
   <g id="patch_5">
    <path d="M 166.77 547.2432 
L 1200.744 547.2432 
" style="fill:none;stroke:#000000;stroke-linecap:square;stroke-linejoin:miter;stroke-width:0.8;"/>
   </g>
   <g id="patch_6">
    <path d="M 166.77 73.7856 
L 1200.744 73.7856 
" style="fill:none;stroke:#000000;stroke-linecap:square;stroke-linejoin:miter;stroke-width:0.8;"/>
   </g>
   <g id="text_16">
    <!-- Unused Prefetches to Prefetches Issued Ratio vs. Instruction for libquantum Testbench -->
    <g transform="translate(251.98825 67.7856)scale(0.2 -0.2)">
     <defs>
      <path d="M 2.984375 54.6875 
L 12.5 54.6875 
L 29.59375 8.796875 
L 46.6875 54.6875 
L 56.203125 54.6875 
L 35.6875 0 
L 23.484375 0 
z
" id="DejaVuSans-118"/>
      <path d="M 9.421875 75.984375 
L 18.40625 75.984375 
L 18.40625 0 
L 9.421875 0 
z
" id="DejaVuSans-108"/>
      <path d="M 48.6875 27.296875 
Q 48.6875 37.203125 44.609375 42.84375 
Q 40.53125 48.484375 33.40625 48.484375 
Q 26.265625 48.484375 22.1875 42.84375 
Q 18.109375 37.203125 18.109375 27.296875 
Q 18.109375 17.390625 22.1875 11.75 
Q 26.265625 6.109375 33.40625 6.109375 
Q 40.53125 6.109375 44.609375 11.75 
Q 48.6875 17.390625 48.6875 27.296875 
z
M 18.109375 46.390625 
Q 20.953125 51.265625 25.265625 53.625 
Q 29.59375 56 35.59375 56 
Q 45.5625 56 51.78125 48.09375 
Q 58.015625 40.1875 58.015625 27.296875 
Q 58.015625 14.40625 51.78125 6.484375 
Q 45.5625 -1.421875 35.59375 -1.421875 
Q 29.59375 -1.421875 25.265625 0.953125 
Q 20.953125 3.328125 18.109375 8.203125 
L 18.109375 0 
L 9.078125 0 
L 9.078125 75.984375 
L 18.109375 75.984375 
z
" id="DejaVuSans-98"/>
      <path d="M 14.796875 27.296875 
Q 14.796875 17.390625 18.875 11.75 
Q 22.953125 6.109375 30.078125 6.109375 
Q 37.203125 6.109375 41.296875 11.75 
Q 45.40625 17.390625 45.40625 27.296875 
Q 45.40625 37.203125 41.296875 42.84375 
Q 37.203125 48.484375 30.078125 48.484375 
Q 22.953125 48.484375 18.875 42.84375 
Q 14.796875 37.203125 14.796875 27.296875 
z
M 45.40625 8.203125 
Q 42.578125 3.328125 38.25 0.953125 
Q 33.9375 -1.421875 27.875 -1.421875 
Q 17.96875 -1.421875 11.734375 6.484375 
Q 5.515625 14.40625 5.515625 27.296875 
Q 5.515625 40.1875 11.734375 48.09375 
Q 17.96875 56 27.875 56 
Q 33.9375 56 38.25 53.625 
Q 42.578125 51.265625 45.40625 46.390625 
L 45.40625 54.6875 
L 54.390625 54.6875 
L 54.390625 -20.796875 
L 45.40625 -20.796875 
z
" id="DejaVuSans-113"/>
      <path d="M 52 44.1875 
Q 55.375 50.25 60.0625 53.125 
Q 64.75 56 71.09375 56 
Q 79.640625 56 84.28125 50.015625 
Q 88.921875 44.046875 88.921875 33.015625 
L 88.921875 0 
L 79.890625 0 
L 79.890625 32.71875 
Q 79.890625 40.578125 77.09375 44.375 
Q 74.3125 48.1875 68.609375 48.1875 
Q 61.625 48.1875 57.5625 43.546875 
Q 53.515625 38.921875 53.515625 30.90625 
L 53.515625 0 
L 44.484375 0 
L 44.484375 32.71875 
Q 44.484375 40.625 41.703125 44.40625 
Q 38.921875 48.1875 33.109375 48.1875 
Q 26.21875 48.1875 22.15625 43.53125 
Q 18.109375 38.875 18.109375 30.90625 
L 18.109375 0 
L 9.078125 0 
L 9.078125 54.6875 
L 18.109375 54.6875 
L 18.109375 46.1875 
Q 21.1875 51.21875 25.484375 53.609375 
Q 29.78125 56 35.6875 56 
Q 41.65625 56 45.828125 52.96875 
Q 50 49.953125 52 44.1875 
z
" id="DejaVuSans-109"/>
      <path d="M -0.296875 72.90625 
L 61.375 72.90625 
L 61.375 64.59375 
L 35.5 64.59375 
L 35.5 0 
L 25.59375 0 
L 25.59375 64.59375 
L -0.296875 64.59375 
z
" id="DejaVuSans-84"/>
     </defs>
     <use xlink:href="#DejaVuSans-85"/>
     <use x="73.193359" xlink:href="#DejaVuSans-110"/>
     <use x="136.572266" xlink:href="#DejaVuSans-117"/>
     <use x="199.951172" xlink:href="#DejaVuSans-115"/>
     <use x="252.050781" xlink:href="#DejaVuSans-101"/>
     <use x="313.574219" xlink:href="#DejaVuSans-100"/>
     <use x="377.050781" xlink:href="#DejaVuSans-32"/>
     <use x="408.837891" xlink:href="#DejaVuSans-80"/>
     <use x="467.390625" xlink:href="#DejaVuSans-114"/>
     <use x="506.253906" xlink:href="#DejaVuSans-101"/>
     <use x="567.777344" xlink:href="#DejaVuSans-102"/>
     <use x="602.982422" xlink:href="#DejaVuSans-101"/>
     <use x="664.505859" xlink:href="#DejaVuSans-116"/>
     <use x="703.714844" xlink:href="#DejaVuSans-99"/>
     <use x="758.695312" xlink:href="#DejaVuSans-104"/>
     <use x="822.074219" xlink:href="#DejaVuSans-101"/>
     <use x="883.597656" xlink:href="#DejaVuSans-115"/>
     <use x="935.697266" xlink:href="#DejaVuSans-32"/>
     <use x="967.484375" xlink:href="#DejaVuSans-116"/>
     <use x="1006.693359" xlink:href="#DejaVuSans-111"/>
     <use x="1067.875" xlink:href="#DejaVuSans-32"/>
     <use x="1099.662109" xlink:href="#DejaVuSans-80"/>
     <use x="1158.214844" xlink:href="#DejaVuSans-114"/>
     <use x="1197.078125" xlink:href="#DejaVuSans-101"/>
     <use x="1258.601562" xlink:href="#DejaVuSans-102"/>
     <use x="1293.806641" xlink:href="#DejaVuSans-101"/>
     <use x="1355.330078" xlink:href="#DejaVuSans-116"/>
     <use x="1394.539062" xlink:href="#DejaVuSans-99"/>
     <use x="1449.519531" xlink:href="#DejaVuSans-104"/>
     <use x="1512.898438" xlink:href="#DejaVuSans-101"/>
     <use x="1574.421875" xlink:href="#DejaVuSans-115"/>
     <use x="1626.521484" xlink:href="#DejaVuSans-32"/>
     <use x="1658.308594" xlink:href="#DejaVuSans-73"/>
     <use x="1687.800781" xlink:href="#DejaVuSans-115"/>
     <use x="1739.900391" xlink:href="#DejaVuSans-115"/>
     <use x="1792" xlink:href="#DejaVuSans-117"/>
     <use x="1855.378906" xlink:href="#DejaVuSans-101"/>
     <use x="1916.902344" xlink:href="#DejaVuSans-100"/>
     <use x="1980.378906" xlink:href="#DejaVuSans-32"/>
     <use x="2012.166016" xlink:href="#DejaVuSans-82"/>
     <use x="2079.398438" xlink:href="#DejaVuSans-97"/>
     <use x="2140.677734" xlink:href="#DejaVuSans-116"/>
     <use x="2179.886719" xlink:href="#DejaVuSans-105"/>
     <use x="2207.669922" xlink:href="#DejaVuSans-111"/>
     <use x="2268.851562" xlink:href="#DejaVuSans-32"/>
     <use x="2300.638672" xlink:href="#DejaVuSans-118"/>
     <use x="2359.818359" xlink:href="#DejaVuSans-115"/>
     <use x="2411.917969" xlink:href="#DejaVuSans-46"/>
     <use x="2443.705078" xlink:href="#DejaVuSans-32"/>
     <use x="2475.492188" xlink:href="#DejaVuSans-73"/>
     <use x="2504.984375" xlink:href="#DejaVuSans-110"/>
     <use x="2568.363281" xlink:href="#DejaVuSans-115"/>
     <use x="2620.462891" xlink:href="#DejaVuSans-116"/>
     <use x="2659.671875" xlink:href="#DejaVuSans-114"/>
     <use x="2700.785156" xlink:href="#DejaVuSans-117"/>
     <use x="2764.164062" xlink:href="#DejaVuSans-99"/>
     <use x="2819.144531" xlink:href="#DejaVuSans-116"/>
     <use x="2858.353516" xlink:href="#DejaVuSans-105"/>
     <use x="2886.136719" xlink:href="#DejaVuSans-111"/>
     <use x="2947.318359" xlink:href="#DejaVuSans-110"/>
     <use x="3010.697266" xlink:href="#DejaVuSans-32"/>
     <use x="3042.484375" xlink:href="#DejaVuSans-102"/>
     <use x="3077.689453" xlink:href="#DejaVuSans-111"/>
     <use x="3138.871094" xlink:href="#DejaVuSans-114"/>
     <use x="3179.984375" xlink:href="#DejaVuSans-32"/>
     <use x="3211.771484" xlink:href="#DejaVuSans-108"/>
     <use x="3239.554688" xlink:href="#DejaVuSans-105"/>
     <use x="3267.337891" xlink:href="#DejaVuSans-98"/>
     <use x="3330.814453" xlink:href="#DejaVuSans-113"/>
     <use x="3394.291016" xlink:href="#DejaVuSans-117"/>
     <use x="3457.669922" xlink:href="#DejaVuSans-97"/>
     <use x="3518.949219" xlink:href="#DejaVuSans-110"/>
     <use x="3582.328125" xlink:href="#DejaVuSans-116"/>
     <use x="3621.537109" xlink:href="#DejaVuSans-117"/>
     <use x="3684.916016" xlink:href="#DejaVuSans-109"/>
     <use x="3782.328125" xlink:href="#DejaVuSans-32"/>
     <use x="3814.115234" xlink:href="#DejaVuSans-84"/>
     <use x="3858.199219" xlink:href="#DejaVuSans-101"/>
     <use x="3919.722656" xlink:href="#DejaVuSans-115"/>
     <use x="3971.822266" xlink:href="#DejaVuSans-116"/>
     <use x="4011.03125" xlink:href="#DejaVuSans-98"/>
     <use x="4074.507812" xlink:href="#DejaVuSans-101"/>
     <use x="4136.03125" xlink:href="#DejaVuSans-110"/>
     <use x="4199.410156" xlink:href="#DejaVuSans-99"/>
     <use x="4254.390625" xlink:href="#DejaVuSans-104"/>
    </g>
   </g>
   <g id="legend_1">
    <g id="patch_7">
     <path d="M 177.27 283.940287 
L 427.760625 283.940287 
Q 430.760625 283.940287 430.760625 280.940287 
L 430.760625 84.2856 
Q 430.760625 81.2856 427.760625 81.2856 
L 177.27 81.2856 
Q 174.27 81.2856 174.27 84.2856 
L 174.27 280.940287 
Q 174.27 283.940287 177.27 283.940287 
z
" style="fill:#ffffff;opacity:0.8;stroke:#cccccc;stroke-linejoin:miter;"/>
    </g>
    <g id="line2d_34">
     <path d="M 180.27 93.433256 
L 210.27 93.433256 
" style="fill:none;stroke:#ff0000;stroke-linecap:square;stroke-width:1.5;"/>
    </g>
    <g id="line2d_35">
     <g>
      <use style="fill:#ff0000;stroke:#ff0000;" x="195.27" xlink:href="#m232e38a3ca" y="93.433256"/>
     </g>
    </g>
    <g id="text_17">
     <!-- AMPMPrefetcher -->
     <g transform="translate(222.27 98.683256)scale(0.15 -0.15)">
      <defs>
       <path d="M 34.1875 63.1875 
L 20.796875 26.90625 
L 47.609375 26.90625 
z
M 28.609375 72.90625 
L 39.796875 72.90625 
L 67.578125 0 
L 57.328125 0 
L 50.6875 18.703125 
L 17.828125 18.703125 
L 11.1875 0 
L 0.78125 0 
z
" id="DejaVuSans-65"/>
       <path d="M 9.8125 72.90625 
L 24.515625 72.90625 
L 43.109375 23.296875 
L 61.8125 72.90625 
L 76.515625 72.90625 
L 76.515625 0 
L 66.890625 0 
L 66.890625 64.015625 
L 48.09375 14.015625 
L 38.1875 14.015625 
L 19.390625 64.015625 
L 19.390625 0 
L 9.8125 0 
z
" id="DejaVuSans-77"/>
      </defs>
      <use xlink:href="#DejaVuSans-65"/>
      <use x="68.408203" xlink:href="#DejaVuSans-77"/>
      <use x="154.6875" xlink:href="#DejaVuSans-80"/>
      <use x="214.990234" xlink:href="#DejaVuSans-77"/>
      <use x="301.269531" xlink:href="#DejaVuSans-80"/>
      <use x="359.822266" xlink:href="#DejaVuSans-114"/>
      <use x="398.685547" xlink:href="#DejaVuSans-101"/>
      <use x="460.208984" xlink:href="#DejaVuSans-102"/>
      <use x="495.414062" xlink:href="#DejaVuSans-101"/>
      <use x="556.9375" xlink:href="#DejaVuSans-116"/>
      <use x="596.146484" xlink:href="#DejaVuSans-99"/>
      <use x="651.126953" xlink:href="#DejaVuSans-104"/>
      <use x="714.505859" xlink:href="#DejaVuSans-101"/>
      <use x="776.029297" xlink:href="#DejaVuSans-114"/>
     </g>
    </g>
    <g id="line2d_36">
     <path d="M 180.27 115.450444 
L 210.27 115.450444 
" style="fill:none;stroke:#ffa500;stroke-linecap:square;stroke-width:1.5;"/>
    </g>
    <g id="line2d_37">
     <g>
      <use style="fill:#ffa500;stroke:#ffa500;stroke-linejoin:miter;" x="195.27" xlink:href="#m8168a409ec" y="115.450444"/>
     </g>
    </g>
    <g id="text_18">
     <!-- BOPPrefetcher -->
     <g transform="translate(222.27 120.700444)scale(0.15 -0.15)">
      <defs>
       <path d="M 19.671875 34.8125 
L 19.671875 8.109375 
L 35.5 8.109375 
Q 43.453125 8.109375 47.28125 11.40625 
Q 51.125 14.703125 51.125 21.484375 
Q 51.125 28.328125 47.28125 31.5625 
Q 43.453125 34.8125 35.5 34.8125 
z
M 19.671875 64.796875 
L 19.671875 42.828125 
L 34.28125 42.828125 
Q 41.5 42.828125 45.03125 45.53125 
Q 48.578125 48.25 48.578125 53.8125 
Q 48.578125 59.328125 45.03125 62.0625 
Q 41.5 64.796875 34.28125 64.796875 
z
M 9.8125 72.90625 
L 35.015625 72.90625 
Q 46.296875 72.90625 52.390625 68.21875 
Q 58.5 63.53125 58.5 54.890625 
Q 58.5 48.1875 55.375 44.234375 
Q 52.25 40.28125 46.1875 39.3125 
Q 53.46875 37.75 57.5 32.78125 
Q 61.53125 27.828125 61.53125 20.40625 
Q 61.53125 10.640625 54.890625 5.3125 
Q 48.25 0 35.984375 0 
L 9.8125 0 
z
" id="DejaVuSans-66"/>
       <path d="M 39.40625 66.21875 
Q 28.65625 66.21875 22.328125 58.203125 
Q 16.015625 50.203125 16.015625 36.375 
Q 16.015625 22.609375 22.328125 14.59375 
Q 28.65625 6.59375 39.40625 6.59375 
Q 50.140625 6.59375 56.421875 14.59375 
Q 62.703125 22.609375 62.703125 36.375 
Q 62.703125 50.203125 56.421875 58.203125 
Q 50.140625 66.21875 39.40625 66.21875 
z
M 39.40625 74.21875 
Q 54.734375 74.21875 63.90625 63.9375 
Q 73.09375 53.65625 73.09375 36.375 
Q 73.09375 19.140625 63.90625 8.859375 
Q 54.734375 -1.421875 39.40625 -1.421875 
Q 24.03125 -1.421875 14.8125 8.828125 
Q 5.609375 19.09375 5.609375 36.375 
Q 5.609375 53.65625 14.8125 63.9375 
Q 24.03125 74.21875 39.40625 74.21875 
z
" id="DejaVuSans-79"/>
      </defs>
      <use xlink:href="#DejaVuSans-66"/>
      <use x="66.853516" xlink:href="#DejaVuSans-79"/>
      <use x="145.564453" xlink:href="#DejaVuSans-80"/>
      <use x="205.867188" xlink:href="#DejaVuSans-80"/>
      <use x="264.419922" xlink:href="#DejaVuSans-114"/>
      <use x="303.283203" xlink:href="#DejaVuSans-101"/>
      <use x="364.806641" xlink:href="#DejaVuSans-102"/>
      <use x="400.011719" xlink:href="#DejaVuSans-101"/>
      <use x="461.535156" xlink:href="#DejaVuSans-116"/>
      <use x="500.744141" xlink:href="#DejaVuSans-99"/>
      <use x="555.724609" xlink:href="#DejaVuSans-104"/>
      <use x="619.103516" xlink:href="#DejaVuSans-101"/>
      <use x="680.626953" xlink:href="#DejaVuSans-114"/>
     </g>
    </g>
    <g id="line2d_38">
     <path d="M 180.27 137.467631 
L 210.27 137.467631 
" style="fill:none;stroke:#ffff00;stroke-linecap:square;stroke-width:1.5;"/>
    </g>
    <g id="line2d_39">
     <g>
      <use style="fill:#ffff00;stroke:#ffff00;stroke-linejoin:miter;" x="195.27" xlink:href="#m5d1012ddb3" y="137.467631"/>
     </g>
    </g>
    <g id="text_19">
     <!-- DCPTPrefetcher -->
     <g transform="translate(222.27 142.717631)scale(0.15 -0.15)">
      <defs>
       <path d="M 19.671875 64.796875 
L 19.671875 8.109375 
L 31.59375 8.109375 
Q 46.6875 8.109375 53.6875 14.9375 
Q 60.6875 21.78125 60.6875 36.53125 
Q 60.6875 51.171875 53.6875 57.984375 
Q 46.6875 64.796875 31.59375 64.796875 
z
M 9.8125 72.90625 
L 30.078125 72.90625 
Q 51.265625 72.90625 61.171875 64.09375 
Q 71.09375 55.28125 71.09375 36.53125 
Q 71.09375 17.671875 61.125 8.828125 
Q 51.171875 0 30.078125 0 
L 9.8125 0 
z
" id="DejaVuSans-68"/>
      </defs>
      <use xlink:href="#DejaVuSans-68"/>
      <use x="77.001953" xlink:href="#DejaVuSans-67"/>
      <use x="146.826172" xlink:href="#DejaVuSans-80"/>
      <use x="207.128906" xlink:href="#DejaVuSans-84"/>
      <use x="268.212891" xlink:href="#DejaVuSans-80"/>
      <use x="326.765625" xlink:href="#DejaVuSans-114"/>
      <use x="365.628906" xlink:href="#DejaVuSans-101"/>
      <use x="427.152344" xlink:href="#DejaVuSans-102"/>
      <use x="462.357422" xlink:href="#DejaVuSans-101"/>
      <use x="523.880859" xlink:href="#DejaVuSans-116"/>
      <use x="563.089844" xlink:href="#DejaVuSans-99"/>
      <use x="618.070312" xlink:href="#DejaVuSans-104"/>
      <use x="681.449219" xlink:href="#DejaVuSans-101"/>
      <use x="742.972656" xlink:href="#DejaVuSans-114"/>
     </g>
    </g>
    <g id="line2d_40">
     <path d="M 180.27 159.484819 
L 210.27 159.484819 
" style="fill:none;stroke:#008000;stroke-linecap:square;stroke-width:1.5;"/>
    </g>
    <g id="line2d_41">
     <g>
      <use style="fill:#008000;stroke:#008000;stroke-linejoin:miter;" x="195.27" xlink:href="#md176b7e8f1" y="159.484819"/>
     </g>
    </g>
    <g id="text_20">
     <!-- IndirectMemoryPrefetcher -->
     <g transform="translate(222.27 164.734819)scale(0.15 -0.15)">
      <defs>
       <path d="M 32.171875 -5.078125 
Q 28.375 -14.84375 24.75 -17.8125 
Q 21.140625 -20.796875 15.09375 -20.796875 
L 7.90625 -20.796875 
L 7.90625 -13.28125 
L 13.1875 -13.28125 
Q 16.890625 -13.28125 18.9375 -11.515625 
Q 21 -9.765625 23.484375 -3.21875 
L 25.09375 0.875 
L 2.984375 54.6875 
L 12.5 54.6875 
L 29.59375 11.921875 
L 46.6875 54.6875 
L 56.203125 54.6875 
z
" id="DejaVuSans-121"/>
      </defs>
      <use xlink:href="#DejaVuSans-73"/>
      <use x="29.492188" xlink:href="#DejaVuSans-110"/>
      <use x="92.871094" xlink:href="#DejaVuSans-100"/>
      <use x="156.347656" xlink:href="#DejaVuSans-105"/>
      <use x="184.130859" xlink:href="#DejaVuSans-114"/>
      <use x="222.994141" xlink:href="#DejaVuSans-101"/>
      <use x="284.517578" xlink:href="#DejaVuSans-99"/>
      <use x="339.498047" xlink:href="#DejaVuSans-116"/>
      <use x="378.707031" xlink:href="#DejaVuSans-77"/>
      <use x="464.986328" xlink:href="#DejaVuSans-101"/>
      <use x="526.509766" xlink:href="#DejaVuSans-109"/>
      <use x="623.921875" xlink:href="#DejaVuSans-111"/>
      <use x="685.103516" xlink:href="#DejaVuSans-114"/>
      <use x="726.216797" xlink:href="#DejaVuSans-121"/>
      <use x="785.396484" xlink:href="#DejaVuSans-80"/>
      <use x="843.949219" xlink:href="#DejaVuSans-114"/>
      <use x="882.8125" xlink:href="#DejaVuSans-101"/>
      <use x="944.335938" xlink:href="#DejaVuSans-102"/>
      <use x="979.541016" xlink:href="#DejaVuSans-101"/>
      <use x="1041.064453" xlink:href="#DejaVuSans-116"/>
      <use x="1080.273438" xlink:href="#DejaVuSans-99"/>
      <use x="1135.253906" xlink:href="#DejaVuSans-104"/>
      <use x="1198.632812" xlink:href="#DejaVuSans-101"/>
      <use x="1260.15625" xlink:href="#DejaVuSans-114"/>
     </g>
    </g>
    <g id="line2d_42">
     <path d="M 180.27 181.502006 
L 210.27 181.502006 
" style="fill:none;stroke:#0000ff;stroke-linecap:square;stroke-width:1.5;"/>
    </g>
    <g id="line2d_43">
     <g>
      <use style="fill:#0000ff;stroke:#0000ff;stroke-linejoin:miter;" x="195.27" xlink:href="#mc8e374203d" y="181.502006"/>
     </g>
    </g>
    <g id="text_21">
     <!-- SignaturePathPrefetcher -->
     <g transform="translate(222.27 186.752006)scale(0.15 -0.15)">
      <defs>
       <path d="M 53.515625 70.515625 
L 53.515625 60.890625 
Q 47.90625 63.578125 42.921875 64.890625 
Q 37.9375 66.21875 33.296875 66.21875 
Q 25.25 66.21875 20.875 63.09375 
Q 16.5 59.96875 16.5 54.203125 
Q 16.5 49.359375 19.40625 46.890625 
Q 22.3125 44.4375 30.421875 42.921875 
L 36.375 41.703125 
Q 47.40625 39.59375 52.65625 34.296875 
Q 57.90625 29 57.90625 20.125 
Q 57.90625 9.515625 50.796875 4.046875 
Q 43.703125 -1.421875 29.984375 -1.421875 
Q 24.8125 -1.421875 18.96875 -0.25 
Q 13.140625 0.921875 6.890625 3.21875 
L 6.890625 13.375 
Q 12.890625 10.015625 18.65625 8.296875 
Q 24.421875 6.59375 29.984375 6.59375 
Q 38.421875 6.59375 43.015625 9.90625 
Q 47.609375 13.234375 47.609375 19.390625 
Q 47.609375 24.75 44.3125 27.78125 
Q 41.015625 30.8125 33.5 32.328125 
L 27.484375 33.5 
Q 16.453125 35.6875 11.515625 40.375 
Q 6.59375 45.0625 6.59375 53.421875 
Q 6.59375 63.09375 13.40625 68.65625 
Q 20.21875 74.21875 32.171875 74.21875 
Q 37.3125 74.21875 42.625 73.28125 
Q 47.953125 72.359375 53.515625 70.515625 
z
" id="DejaVuSans-83"/>
       <path d="M 45.40625 27.984375 
Q 45.40625 37.75 41.375 43.109375 
Q 37.359375 48.484375 30.078125 48.484375 
Q 22.859375 48.484375 18.828125 43.109375 
Q 14.796875 37.75 14.796875 27.984375 
Q 14.796875 18.265625 18.828125 12.890625 
Q 22.859375 7.515625 30.078125 7.515625 
Q 37.359375 7.515625 41.375 12.890625 
Q 45.40625 18.265625 45.40625 27.984375 
z
M 54.390625 6.78125 
Q 54.390625 -7.171875 48.1875 -13.984375 
Q 42 -20.796875 29.203125 -20.796875 
Q 24.46875 -20.796875 20.265625 -20.09375 
Q 16.0625 -19.390625 12.109375 -17.921875 
L 12.109375 -9.1875 
Q 16.0625 -11.328125 19.921875 -12.34375 
Q 23.78125 -13.375 27.78125 -13.375 
Q 36.625 -13.375 41.015625 -8.765625 
Q 45.40625 -4.15625 45.40625 5.171875 
L 45.40625 9.625 
Q 42.625 4.78125 38.28125 2.390625 
Q 33.9375 0 27.875 0 
Q 17.828125 0 11.671875 7.65625 
Q 5.515625 15.328125 5.515625 27.984375 
Q 5.515625 40.671875 11.671875 48.328125 
Q 17.828125 56 27.875 56 
Q 33.9375 56 38.28125 53.609375 
Q 42.625 51.21875 45.40625 46.390625 
L 45.40625 54.6875 
L 54.390625 54.6875 
z
" id="DejaVuSans-103"/>
      </defs>
      <use xlink:href="#DejaVuSans-83"/>
      <use x="63.476562" xlink:href="#DejaVuSans-105"/>
      <use x="91.259766" xlink:href="#DejaVuSans-103"/>
      <use x="154.736328" xlink:href="#DejaVuSans-110"/>
      <use x="218.115234" xlink:href="#DejaVuSans-97"/>
      <use x="279.394531" xlink:href="#DejaVuSans-116"/>
      <use x="318.603516" xlink:href="#DejaVuSans-117"/>
      <use x="381.982422" xlink:href="#DejaVuSans-114"/>
      <use x="420.845703" xlink:href="#DejaVuSans-101"/>
      <use x="482.369141" xlink:href="#DejaVuSans-80"/>
      <use x="538.171875" xlink:href="#DejaVuSans-97"/>
      <use x="599.451172" xlink:href="#DejaVuSans-116"/>
      <use x="638.660156" xlink:href="#DejaVuSans-104"/>
      <use x="702.039062" xlink:href="#DejaVuSans-80"/>
      <use x="760.591797" xlink:href="#DejaVuSans-114"/>
      <use x="799.455078" xlink:href="#DejaVuSans-101"/>
      <use x="860.978516" xlink:href="#DejaVuSans-102"/>
      <use x="896.183594" xlink:href="#DejaVuSans-101"/>
      <use x="957.707031" xlink:href="#DejaVuSans-116"/>
      <use x="996.916016" xlink:href="#DejaVuSans-99"/>
      <use x="1051.896484" xlink:href="#DejaVuSans-104"/>
      <use x="1115.275391" xlink:href="#DejaVuSans-101"/>
      <use x="1176.798828" xlink:href="#DejaVuSans-114"/>
     </g>
    </g>
    <g id="line2d_44">
     <path d="M 180.27 203.519194 
L 210.27 203.519194 
" style="fill:none;stroke:#ff00ff;stroke-linecap:square;stroke-width:1.5;"/>
    </g>
    <g id="line2d_45">
     <g>
      <use style="fill:#ff00ff;stroke:#ff00ff;stroke-linejoin:miter;" x="195.27" xlink:href="#m487de774e2" y="203.519194"/>
     </g>
    </g>
    <g id="text_22">
     <!-- SignaturePathPrefetcherV2 -->
     <g transform="translate(222.27 208.769194)scale(0.15 -0.15)">
      <defs>
       <path d="M 28.609375 0 
L 0.78125 72.90625 
L 11.078125 72.90625 
L 34.1875 11.53125 
L 57.328125 72.90625 
L 67.578125 72.90625 
L 39.796875 0 
z
" id="DejaVuSans-86"/>
      </defs>
      <use xlink:href="#DejaVuSans-83"/>
      <use x="63.476562" xlink:href="#DejaVuSans-105"/>
      <use x="91.259766" xlink:href="#DejaVuSans-103"/>
      <use x="154.736328" xlink:href="#DejaVuSans-110"/>
      <use x="218.115234" xlink:href="#DejaVuSans-97"/>
      <use x="279.394531" xlink:href="#DejaVuSans-116"/>
      <use x="318.603516" xlink:href="#DejaVuSans-117"/>
      <use x="381.982422" xlink:href="#DejaVuSans-114"/>
      <use x="420.845703" xlink:href="#DejaVuSans-101"/>
      <use x="482.369141" xlink:href="#DejaVuSans-80"/>
      <use x="538.171875" xlink:href="#DejaVuSans-97"/>
      <use x="599.451172" xlink:href="#DejaVuSans-116"/>
      <use x="638.660156" xlink:href="#DejaVuSans-104"/>
      <use x="702.039062" xlink:href="#DejaVuSans-80"/>
      <use x="760.591797" xlink:href="#DejaVuSans-114"/>
      <use x="799.455078" xlink:href="#DejaVuSans-101"/>
      <use x="860.978516" xlink:href="#DejaVuSans-102"/>
      <use x="896.183594" xlink:href="#DejaVuSans-101"/>
      <use x="957.707031" xlink:href="#DejaVuSans-116"/>
      <use x="996.916016" xlink:href="#DejaVuSans-99"/>
      <use x="1051.896484" xlink:href="#DejaVuSans-104"/>
      <use x="1115.275391" xlink:href="#DejaVuSans-101"/>
      <use x="1176.798828" xlink:href="#DejaVuSans-114"/>
      <use x="1217.912109" xlink:href="#DejaVuSans-86"/>
      <use x="1286.320312" xlink:href="#DejaVuSans-50"/>
     </g>
    </g>
    <g id="line2d_46">
     <path d="M 180.27 225.536381 
L 210.27 225.536381 
" style="fill:none;stroke:#000000;stroke-linecap:square;stroke-width:1.5;"/>
    </g>
    <g id="line2d_47">
     <g>
      <use style="stroke:#000000;stroke-linejoin:miter;" x="195.27" xlink:href="#m614e319504" y="225.536381"/>
     </g>
    </g>
    <g id="text_23">
     <!-- SlimAMPMPrefetcher -->
     <g transform="translate(222.27 230.786381)scale(0.15 -0.15)">
      <use xlink:href="#DejaVuSans-83"/>
      <use x="63.476562" xlink:href="#DejaVuSans-108"/>
      <use x="91.259766" xlink:href="#DejaVuSans-105"/>
      <use x="119.042969" xlink:href="#DejaVuSans-109"/>
      <use x="216.455078" xlink:href="#DejaVuSans-65"/>
      <use x="284.863281" xlink:href="#DejaVuSans-77"/>
      <use x="371.142578" xlink:href="#DejaVuSans-80"/>
      <use x="431.445312" xlink:href="#DejaVuSans-77"/>
      <use x="517.724609" xlink:href="#DejaVuSans-80"/>
      <use x="576.277344" xlink:href="#DejaVuSans-114"/>
      <use x="615.140625" xlink:href="#DejaVuSans-101"/>
      <use x="676.664062" xlink:href="#DejaVuSans-102"/>
      <use x="711.869141" xlink:href="#DejaVuSans-101"/>
      <use x="773.392578" xlink:href="#DejaVuSans-116"/>
      <use x="812.601562" xlink:href="#DejaVuSans-99"/>
      <use x="867.582031" xlink:href="#DejaVuSans-104"/>
      <use x="930.960938" xlink:href="#DejaVuSans-101"/>
      <use x="992.484375" xlink:href="#DejaVuSans-114"/>
     </g>
    </g>
    <g id="line2d_48">
     <path d="M 180.27 247.553569 
L 210.27 247.553569 
" style="fill:none;stroke:#a52a2a;stroke-linecap:square;stroke-width:1.5;"/>
    </g>
    <g id="line2d_49">
     <g>
      <use style="fill:#a52a2a;stroke:#a52a2a;stroke-linejoin:miter;" x="195.27" xlink:href="#m74c101b062" y="247.553569"/>
     </g>
    </g>
    <g id="text_24">
     <!-- StridePrefetcher -->
     <g transform="translate(222.27 252.803569)scale(0.15 -0.15)">
      <use xlink:href="#DejaVuSans-83"/>
      <use x="63.476562" xlink:href="#DejaVuSans-116"/>
      <use x="102.685547" xlink:href="#DejaVuSans-114"/>
      <use x="143.798828" xlink:href="#DejaVuSans-105"/>
      <use x="171.582031" xlink:href="#DejaVuSans-100"/>
      <use x="235.058594" xlink:href="#DejaVuSans-101"/>
      <use x="296.582031" xlink:href="#DejaVuSans-80"/>
      <use x="355.134766" xlink:href="#DejaVuSans-114"/>
      <use x="393.998047" xlink:href="#DejaVuSans-101"/>
      <use x="455.521484" xlink:href="#DejaVuSans-102"/>
      <use x="490.726562" xlink:href="#DejaVuSans-101"/>
      <use x="552.25" xlink:href="#DejaVuSans-116"/>
      <use x="591.458984" xlink:href="#DejaVuSans-99"/>
      <use x="646.439453" xlink:href="#DejaVuSans-104"/>
      <use x="709.818359" xlink:href="#DejaVuSans-101"/>
      <use x="771.341797" xlink:href="#DejaVuSans-114"/>
     </g>
    </g>
    <g id="line2d_50">
     <path d="M 180.27 269.570756 
L 210.27 269.570756 
" style="fill:none;stroke:#ffc0cb;stroke-linecap:square;stroke-width:1.5;"/>
    </g>
    <g id="line2d_51">
     <g>
      <use style="fill:#ffc0cb;stroke:#ffc0cb;" x="195.27" xlink:href="#med30c5eb28" y="269.570756"/>
     </g>
    </g>
    <g id="text_25">
     <!-- TaggedPrefetcher -->
     <g transform="translate(222.27 274.820756)scale(0.15 -0.15)">
      <use xlink:href="#DejaVuSans-84"/>
      <use x="44.583984" xlink:href="#DejaVuSans-97"/>
      <use x="105.863281" xlink:href="#DejaVuSans-103"/>
      <use x="169.339844" xlink:href="#DejaVuSans-103"/>
      <use x="232.816406" xlink:href="#DejaVuSans-101"/>
      <use x="294.339844" xlink:href="#DejaVuSans-100"/>
      <use x="357.816406" xlink:href="#DejaVuSans-80"/>
      <use x="416.369141" xlink:href="#DejaVuSans-114"/>
      <use x="455.232422" xlink:href="#DejaVuSans-101"/>
      <use x="516.755859" xlink:href="#DejaVuSans-102"/>
      <use x="551.960938" xlink:href="#DejaVuSans-101"/>
      <use x="613.484375" xlink:href="#DejaVuSans-116"/>
      <use x="652.693359" xlink:href="#DejaVuSans-99"/>
      <use x="707.673828" xlink:href="#DejaVuSans-104"/>
      <use x="771.052734" xlink:href="#DejaVuSans-101"/>
      <use x="832.576172" xlink:href="#DejaVuSans-114"/>
     </g>
    </g>
   </g>
  </g>
 </g>
 <defs>
  <clipPath id="pde1c17adf9">
   <rect height="473.4576" width="1033.974" x="166.77" y="73.7856"/>
  </clipPath>
 </defs>
</svg>
